<?xml version="1.0" encoding="iso-8859-1"?>
<!-- Generator: Adobe Illustrator 19.0.0, SVG Export Plug-In . SVG Version: 6.00 Build 0)  -->
<svg version="1.1" id="Layer_1" xmlns="http://www.w3.org/2000/svg" xmlns:xlink="http://www.w3.org/1999/xlink" x="0px" y="0px"
	 viewBox="0 0 499.082 499.082" style="enable-background:new 0 0 499.082 499.082;" xml:space="preserve">
<path style="fill:#32F9B1;" d="M141.422,358.112V109.178c0-30.547,24.781-55.335,55.32-55.335h9.216
	c30.555,0,55.351,24.789,55.351,55.335V358.12"/>
<path style="fill:#2FD4EA;" d="M141.422,109.178c0-30.547,24.781-55.335,55.32-55.335h9.216c30.555,0,55.351,24.789,55.351,55.335
	V358.12"/>
<path style="fill:#0071AA;" d="M261.317,377.805c-10.878,0-19.692-8.814-19.692-19.692V109.178
	c0-19.653-15.998-35.643-35.659-35.643h-9.216c-19.645,0-35.627,15.99-35.627,35.643V358.12c0,10.878-8.814,19.692-19.692,19.692
	s-19.692-8.814-19.692-19.692V109.178c0-41.37,33.65-75.028,75.012-75.028h9.216c41.37,0,75.043,33.658,75.043,75.028V358.12
	C281.009,368.991,272.195,377.805,261.317,377.805z"/>
<path style="fill:#32F9B1;" d="M261.317,358.112V109.178c0-30.547,24.757-55.335,55.304-55.335h9.216
	c30.57,0,55.335,24.789,55.335,55.335V358.12"/>
<path style="fill:#2FD4EA;" d="M261.317,109.178c0-30.547,24.757-55.335,55.304-55.335h9.216c30.57,0,55.335,24.789,55.335,55.335
	V358.12"/>
<path style="fill:#0071AA;" d="M381.18,377.805c-10.878,0-19.692-8.814-19.692-19.692V109.178c0-19.653-15.982-35.643-35.643-35.643
	h-9.216c-19.637,0-35.612,15.99-35.612,35.643V358.12c0,10.878-8.814,19.692-19.692,19.692c-10.878,0-19.692-8.814-19.692-19.692
	V109.178c0-41.37,33.642-75.028,74.996-75.028h9.216c41.37,0,75.028,33.658,75.028,75.028V358.12
	C400.872,368.991,392.058,377.805,381.18,377.805z"/>
<path style="fill:#B1BCB8;" d="M445.424,420.852h-9.216c-30.57,0-55.335-24.789-55.335-55.335V116.575"/>
<path style="fill:#0071AA;" d="M445.424,440.544h-9.216c-41.37,0-75.028-33.658-75.028-75.028V116.575
	c0-10.878,8.814-19.692,19.692-19.692c10.878,0,19.692,8.814,19.692,19.692v248.942c0,19.653,15.982,35.643,35.643,35.643h9.216
	c10.878,0,19.692,8.814,19.692,19.692C465.117,431.73,456.302,440.544,445.424,440.544z"/>
<path style="fill:#B1BCB8;" d="M19.684,109.178c0-30.547,24.781-55.335,55.32-55.335h9.232c30.539,0,55.32,24.789,55.32,55.335
	V358.12"/>
<path style="fill:#C7D3CE;" d="M19.684,109.178c0-30.547,24.781-55.335,55.32-55.335h9.232c30.539,0,55.32,24.789,55.32,55.335"/>
<path style="fill:#0071AA;" d="M139.563,377.805c-10.878,0-19.692-8.814-19.692-19.692V109.178
	c0-19.653-15.982-35.643-35.627-35.643h-9.232c-19.645,0-35.627,15.99-35.627,35.643c0,10.878-8.814,19.692-19.692,19.692
	S0,120.056,0,109.178C0,67.808,33.642,34.15,75.012,34.15h9.232c41.37,0,75.012,33.658,75.012,75.028V358.12
	C159.256,368.991,150.441,377.805,139.563,377.805z"/>
<polyline style="fill:#B1BCB8;" points="453.167,392.787 479.397,419.017 453.167,445.239 "/>
<path style="fill:#0071AA;" d="M453.167,464.931c-5.049,0-10.09-1.922-13.926-5.766c-7.696-7.696-7.696-20.165,0-27.845
	l12.296-12.304l-12.296-12.304c-7.696-7.696-7.696-20.157,0-27.845c7.696-7.688,20.157-7.696,27.845,0l26.23,26.23
	c3.694,3.694,5.766,8.696,5.766,13.926s-2.079,10.232-5.766,13.926l-26.23,26.222C463.242,463.009,458.193,464.931,453.167,464.931z
	"/>
<g>
</g>
<g>
</g>
<g>
</g>
<g>
</g>
<g>
</g>
<g>
</g>
<g>
</g>
<g>
</g>
<g>
</g>
<g>
</g>
<g>
</g>
<g>
</g>
<g>
</g>
<g>
</g>
<g>
</g>
</svg>
