<?xml version="1.0" encoding="iso-8859-1"?>
<!-- Generator: Adobe Illustrator 19.0.0, SVG Export Plug-In . SVG Version: 6.00 Build 0)  -->
<svg version="1.1" id="Layer_1" xmlns="http://www.w3.org/2000/svg" xmlns:xlink="http://www.w3.org/1999/xlink" x="0px" y="0px"
	 viewBox="0 0 499.856 499.856" style="enable-background:new 0 0 499.856 499.856;" xml:space="preserve">
<path style="fill:#B1BCB8;" d="M118.627,80.622c81.408-81.4,213.323-81.416,294.731,0"/>
<path style="fill:#0071AA;" d="M118.627,100.315c-5.041,0-10.075-1.922-13.926-5.766c-7.696-7.696-7.696-20.165,0-27.845
	c88.946-88.946,233.669-88.93,322.591,0c7.688,7.696,7.688,20.157,0,27.845c-7.712,7.696-20.165,7.696-27.853,0
	c-73.578-73.578-193.3-73.578-266.894,0C128.694,98.393,123.669,100.315,118.627,100.315z"/>
<circle style="fill:#32F9B1;" cx="344.215" cy="156.572" r="102.636"/>
<path style="fill:#2FD4EA;" d="M271.66,229.126c-40.07-40.062-40.07-105.031,0-145.109c40.086-40.078,105.039-40.062,145.101,0"/>
<path style="fill:#0071AA;" d="M344.207,278.884c-32.658,0-63.37-12.721-86.481-35.832c-23.095-23.095-35.816-53.799-35.816-86.473
	s12.721-63.386,35.816-86.481c23.111-23.103,53.815-35.824,86.481-35.824s63.386,12.721,86.481,35.824
	c23.095,23.103,35.832,53.815,35.824,86.481c0,32.666-12.721,63.378-35.832,86.481C407.592,266.155,376.872,278.884,344.207,278.884
	z M344.207,73.659c-22.142,0-42.961,8.625-58.628,24.285c-15.651,15.659-24.277,36.486-24.277,58.636s8.625,42.961,24.277,58.62
	c15.667,15.659,36.494,24.292,58.628,24.292c22.15,0,42.969-8.633,58.628-24.292c15.667-15.667,24.292-36.486,24.292-58.628
	s-8.625-42.969-24.285-58.628C387.175,82.284,366.357,73.659,344.207,73.659z"/>
<path style="fill:#B1BCB8;" d="M381.244,419.243c-81.408,81.392-213.331,81.408-294.747-0.008"/>
<path style="fill:#0071AA;" d="M233.875,499.856c-58.415,0-116.823-22.229-161.296-66.702c-7.704-7.696-7.704-20.157,0-27.845
	c7.696-7.696,20.149-7.696,27.845,0c73.578,73.578,193.3,73.57,266.886,0.008c7.696-7.696,20.165-7.696,27.845,0
	c7.704,7.696,7.704,20.165,0,27.845C350.697,477.627,292.282,499.856,233.875,499.856z"/>
<circle style="fill:#32F9B1;" cx="155.657" cy="343.27" r="102.636"/>
<path style="fill:#2FD4EA;" d="M228.203,270.732c40.078,40.062,40.078,105.031,0,145.117
	c-40.078,40.07-105.031,40.054-145.101-0.008"/>
<path style="fill:#0071AA;" d="M155.665,465.583c-32.673,0-63.386-12.721-86.489-35.824s-35.832-53.815-35.832-86.481
	s12.737-63.378,35.848-86.481c23.095-23.103,53.799-35.824,86.465-35.824s63.378,12.721,86.481,35.824
	c23.095,23.095,35.832,53.799,35.832,86.473s-12.721,63.386-35.816,86.489C219.035,452.87,188.322,465.583,155.665,465.583z
	 M155.649,260.366c-22.142,0-42.953,8.625-58.604,24.292c-15.667,15.659-24.316,36.486-24.316,58.62
	c0,22.15,8.649,42.961,24.292,58.628c15.667,15.659,36.494,24.285,58.644,24.285c22.142,0,42.953-8.625,58.628-24.285
	c15.644-15.659,24.277-36.486,24.277-58.636s-8.633-42.961-24.292-58.612C198.618,268.991,177.799,260.366,155.649,260.366z"/>
<g>
</g>
<g>
</g>
<g>
</g>
<g>
</g>
<g>
</g>
<g>
</g>
<g>
</g>
<g>
</g>
<g>
</g>
<g>
</g>
<g>
</g>
<g>
</g>
<g>
</g>
<g>
</g>
<g>
</g>
</svg>
