<?xml version="1.0" encoding="iso-8859-1"?>
<!-- Generator: Adobe Illustrator 19.0.0, SVG Export Plug-In . SVG Version: 6.00 Build 0)  -->
<svg version="1.1" id="Layer_1" xmlns="http://www.w3.org/2000/svg" xmlns:xlink="http://www.w3.org/1999/xlink" x="0px" y="0px"
	 viewBox="0 0 488.779 488.779" style="enable-background:new 0 0 488.779 488.779;" xml:space="preserve">
<polyline style="fill:#32F9B1;" points="121.36,211.154 195.679,136.835 269.989,211.154 "/>
<path style="fill:#0071AA;" d="M269.989,230.846c-5.041,0-10.075-1.922-13.934-5.766l-60.377-60.392l-60.4,60.392
	c-7.704,7.696-20.157,7.696-27.853,0c-7.696-7.696-7.696-20.157,0-27.845l74.327-74.327c3.702-3.694,8.704-5.766,13.934-5.766l0,0
	c5.222,0,10.232,2.08,13.926,5.766l74.311,74.327c7.688,7.696,7.688,20.165,0,27.845
	C280.056,228.924,275.031,230.846,269.989,230.846z"/>
<polyline style="fill:#32F9B1;" points="271.596,211.154 345.939,136.835 420.234,211.154 469.071,162.317 "/>
<path style="fill:#0071AA;" d="M271.596,230.846c-5.033,0-10.075-1.922-13.918-5.766c-7.704-7.696-7.704-20.157,0-27.845
	l74.319-74.327c3.694-3.694,8.704-5.766,13.942-5.766l0,0c5.215,0,10.216,2.08,13.911,5.766l60.392,60.4l34.926-34.918
	c7.704-7.696,20.157-7.696,27.845,0s7.688,20.165,0,27.845l-48.853,48.837c-3.694,3.694-8.696,5.766-13.919,5.766l0,0
	c-5.222,0-10.24-2.079-13.919-5.766l-60.384-60.392l-60.4,60.392C281.687,228.924,276.645,230.846,271.596,230.846z"/>
<polyline style="fill:#B1BCB8;" points="19.708,351.938 94.011,277.627 168.322,351.938 "/>
<path style="fill:#0071AA;" d="M168.322,371.63c-5.033,0-10.067-1.922-13.919-5.766l-60.392-60.392l-60.4,60.392
	c-7.68,7.696-20.141,7.696-27.845,0c-7.688-7.696-7.688-20.165,0-27.845l74.342-74.319c3.686-3.694,8.696-5.766,13.911-5.766l0,0
	c5.23,0,10.24,2.08,13.934,5.766l74.311,74.319c7.688,7.696,7.688,20.165,0,27.845C178.397,369.708,173.363,371.63,168.322,371.63z"
	/>
<polyline style="fill:#B1BCB8;" points="169.945,351.938 244.256,277.627 318.574,351.938 367.411,303.101 "/>
<path style="fill:#0071AA;" d="M318.574,371.63c-5.041,0-10.075-1.922-13.934-5.766l-60.384-60.392l-60.392,60.392
	c-7.704,7.696-20.157,7.696-27.845,0c-7.704-7.696-7.704-20.157,0-27.845l74.319-74.319c7.696-7.696,20.157-7.696,27.845,0
	l60.392,60.392l34.926-34.918c7.696-7.696,20.149-7.696,27.845,0c7.696,7.696,7.696,20.165,0,27.845l-48.853,48.837
	C328.649,369.708,323.616,371.63,318.574,371.63z"/>
<g>
</g>
<g>
</g>
<g>
</g>
<g>
</g>
<g>
</g>
<g>
</g>
<g>
</g>
<g>
</g>
<g>
</g>
<g>
</g>
<g>
</g>
<g>
</g>
<g>
</g>
<g>
</g>
<g>
</g>
</svg>
