<svg height="512pt" viewBox="0 0 512 512" width="512pt" xmlns="http://www.w3.org/2000/svg"><path d="m512 256c0 141.386719-114.613281 256-256 256s-256-114.613281-256-256 114.613281-256 256-256 256 114.613281 256 256zm0 0" fill="#9e69e2"/><path d="m512 256c0 26.050781-3.890625 51.191406-11.128906 74.871094-32.011719 104.847656-129.542969 181.128906-244.871094 181.128906-104.558594 0-194.488281-62.699219-234.230469-152.550781-14-31.628907-21.769531-66.628907-21.769531-103.449219 0-46.21875 12.25-89.570312 33.679688-127 44.121093 77.070312 127.160156 129 222.320312 129s178.210938-51.929688 222.320312-129c21.429688 37.429688 33.679688 80.78125 33.679688 127zm0 0" fill="#8e4fd2"/><path d="m30.742188 377.703125c7.15625 13.21875 15.429687 25.738281 24.71875 37.425781 46.898437 59.019532 119.300781 96.871094 200.539062 96.871094s153.640625-37.851562 200.539062-96.871094c9.289063-11.6875 17.5625-24.207031 24.71875-37.425781zm0 0" fill="#7038ba"/><path d="m245.28125 495.53125c-1.953125.078125-3.921875.117188-5.902344.117188-81.660156 0-147.867187-66.207032-147.867187-147.878907 0-81.660156 66.207031-147.859375 147.867187-147.859375 1.980469 0 3.941406.039063 5.890625.121094-29.371093 41.808594-46.609375 92.757812-46.609375 147.738281s17.238282 105.941407 46.621094 147.761719zm0 0" fill="#ffd112"/><path d="m145.753906 318.246094c0 9.390625-7.613281 17.003906-17.003906 17.003906-9.394531 0-17.007812-7.613281-17.007812-17.003906s7.613281-17.003906 17.007812-17.003906c9.390625 0 17.003906 7.613281 17.003906 17.003906zm0 0" fill="#ff9f00"/><path d="m198.183594 236.246094c0 9.390625-7.613282 17.003906-17.003906 17.003906-9.394532 0-17.007813-7.613281-17.007813-17.003906 0-9.394532 7.613281-17.007813 17.007813-17.007813 9.390624 0 17.003906 7.613281 17.003906 17.007813zm0 0" fill="#ff9f00"/><path d="m196.769531 455.246094c0 6.640625-5.382812 12.023437-12.023437 12.023437s-12.023438-5.382812-12.023438-12.023437 5.382813-12.023438 12.023438-12.023438 12.023437 5.382813 12.023437 12.023438zm0 0" fill="#ff9f00"/><path d="m181.179688 287.667969c0 4.078125-3.304688 7.382812-7.382813 7.382812s-7.386719-3.304687-7.386719-7.382812 3.308594-7.386719 7.386719-7.386719 7.382813 3.308594 7.382813 7.386719zm0 0" fill="#ff9f00"/><path d="m164.171875 394.460938c0 12.324218-9.992187 22.316406-22.316406 22.316406-12.328125 0-22.320313-9.992188-22.320313-22.316406 0-12.328126 9.992188-22.320313 22.320313-22.320313 12.324219 0 22.316406 9.992187 22.316406 22.320313zm0 0" fill="#ff9f00"/><path d="m433.96875 435.011719-63.6875 5.859375 5.5 41.429687c-8.089844 4.300781-16.453125 8.167969-25.03125 11.589844l-32-11.890625-7.910156 24.109375c-13.578125 2.96875-27.558594 4.851563-41.859375 5.570313l-14.460938-15.070313v-296.070313l.039063-.039062.5625-.589844 43.699218-45.519531 19.691407 60.03125.238281.738281.730469-.269531 59.21875-22-8.359375 62.917969-.058594.480468.46875.039063h.011719l63.207031 5.8125-35.070312 53.429687-.019532.03125.03125.019532 54.75 32.957031-54.78125 32.972656zm0 0" fill="#ffd112"/><path d="m402.417969 347.773438c0 81.664062-66.191407 147.875-147.859375 147.875v-295.734376c81.667968 0 147.859375 66.191407 147.859375 147.859376zm0 0" fill="#ff9f00"/><g fill="#fff"><path d="m64.183594 193.914062h-1.523438c-6.753906 0-12.226562-5.472656-12.226562-12.226562v-1.523438h-8.714844v1.523438c0 6.753906-5.476562 12.226562-12.230469 12.226562h-1.523437v8.71875h1.523437c6.753907 0 12.230469 5.472657 12.230469 12.226563v1.523437h8.714844v-1.523437c0-6.753906 5.472656-12.226563 12.226562-12.226563h1.523438zm0 0"/><path d="m108.425781 101.359375h-1.523437c-6.753906 0-12.226563-5.472656-12.226563-12.226563v-1.523437h-8.714843v1.523437c0 6.753907-5.476563 12.226563-12.230469 12.226563h-1.523438v8.714844h1.523438c6.753906 0 12.230469 5.476562 12.230469 12.226562v1.527344h8.714843v-1.527344c0-6.75 5.472657-12.226562 12.226563-12.226562h1.523437zm0 0"/><path d="m243.757812 83.359375h-1.523437c-6.753906 0-12.226563-5.472656-12.226563-12.226563v-1.523437h-8.714843v1.523437c0 6.753907-5.476563 12.226563-12.226563 12.226563h-1.527344v8.714844h1.527344c6.75 0 12.226563 5.476562 12.226563 12.226562v1.527344h8.714843v-1.527344c0-6.75 5.472657-12.226562 12.226563-12.226562h1.523437zm0 0"/><path d="m87.09375 284.25h-1.523438c-6.753906 0-12.226562-5.472656-12.226562-12.226562v-1.523438h-8.714844v1.523438c0 6.753906-5.476562 12.226562-12.230468 12.226562h-1.523438v8.714844h1.523438c6.753906 0 12.230468 5.476562 12.230468 12.226562v1.527344h8.714844v-1.527344c0-6.75 5.472656-12.226562 12.226562-12.226562h1.523438zm0 0"/><path d="m181.972656 163.03125h-1.523437c-6.753907 0-12.226563-5.472656-12.226563-12.226562v-1.523438h-8.714844v1.523438c0 6.753906-5.476562 12.226562-12.230468 12.226562h-1.523438v8.714844h1.523438c6.753906 0 12.230468 5.476562 12.230468 12.230468v1.523438h8.714844v-1.523438c0-6.753906 5.472656-12.230468 12.226563-12.230468h1.523437zm0 0"/><path d="m393.011719 85.054688c0-.082032.007812-.15625.007812-.238282 0-14.40625-11.679687-26.082031-26.085937-26.082031-3.421875 0-6.6875.664063-9.679688 1.863281-5.785156-10.363281-16.855468-17.375-29.5625-17.375-16.507812 0-30.246094 11.820313-33.230468 27.457032-.890626-.128907-1.800782-.195313-2.726563-.195313-8.972656 0-16.492187 6.210937-18.5 14.570313zm0 0"/></g><path d="m367.5625 85.054688c0-.046876.003906-.089844.003906-.136719 0-8.285157-6.714844-15-15-15-1.96875 0-3.847656.382812-5.570312 1.074219-3.324219-5.960938-9.6875-9.992188-16.996094-9.992188-9.492188 0-17.390625 6.796875-19.109375 15.789062-.511719-.074218-1.03125-.113281-1.566406-.113281-5.160157 0-9.480469 3.570313-10.636719 8.378907zm0 0" fill="#d0f6ff"/><path d="m417.335938 168.523438c0-.046876.003906-.097657.003906-.148438 0-9.0625-7.347656-16.410156-16.414063-16.410156-2.152343 0-4.207031.417968-6.089843 1.171875-3.640626-6.519531-10.605469-10.933594-18.601563-10.933594-10.386719 0-19.03125 7.4375-20.910156 17.277344-.558594-.082031-1.132813-.125-1.714844-.125-5.644531 0-10.378906 3.910156-11.640625 9.167969zm0 0" fill="#fff"/><path d="m401.320312 168.523438c0-.027344.003907-.054688.003907-.085938 0-5.210938-4.226563-9.4375-9.4375-9.4375-1.238281 0-2.421875.242188-3.503907.675781-2.09375-3.75-6.097656-6.285156-10.695312-6.285156-5.972656 0-10.945312 4.273437-12.023438 9.933594-.320312-.046875-.652343-.070313-.984374-.070313-3.25 0-5.96875 2.246094-6.695313 5.269532zm0 0" fill="#d0f6ff"/><path d="m504.738281 316.761719c-1.128906 4.636719-2.378906 9.226562-3.757812 13.757812h-64.351563c1.261719-5.25 5.992188-9.160156 11.640625-9.160156.582031 0 1.160157.039063 1.71875.121094 1.871094-9.839844 10.523438-17.28125 20.902344-17.28125 8 0 14.96875 4.421875 18.609375 10.941406 1.878906-.761719 3.929688-1.179687 6.089844-1.179687 3.390625 0 6.539062 1.027343 9.148437 2.800781zm0 0" fill="#fff"/><path d="m495.980469 330.523438c0-.027344.003906-.054688.003906-.085938 0-5.210938-4.226563-9.4375-9.4375-9.4375-1.238281 0-2.421875.242188-3.503906.675781-2.09375-3.75-6.097657-6.285156-10.695313-6.285156-5.972656 0-10.945312 4.273437-12.023437 9.933594-.320313-.046875-.652344-.070313-.984375-.070313-3.25 0-5.96875 2.246094-6.695313 5.269532zm0 0" fill="#d0f6ff"/><path d="m511.808594 246.109375h-99.867188c0-.078125-.011718-.160156-.011718-.238281 0-14.441406 11.710937-26.140625 26.148437-26.140625 3.433594 0 6.703125.667969 9.703125 1.871093 5.796875-10.390624 16.898438-17.421874 29.640625-17.421874 16.539063 0 30.308594 11.851562 33.296875 27.519531.050781-.007813.089844-.007813.140625-.019531.449219 4.769531.769531 9.589843.949219 14.429687zm0 0" fill="#fff"/><path d="m437.449219 246.109375c0-.046875-.003907-.089844-.003907-.136719 0-8.300781 6.734376-15.035156 15.035157-15.035156 1.972656 0 3.855469.386719 5.582031 1.074219 3.332031-5.972657 9.710938-10.011719 17.039062-10.011719 9.511719 0 17.429688 6.8125 19.152344 15.824219.511719-.074219 1.035156-.113281 1.570313-.113281 5.171875 0 9.503906 3.582031 10.664062 8.398437zm0 0" fill="#d0f6ff"/></svg>