<?xml version="1.0" encoding="iso-8859-1"?>
<!-- Generator: Adobe Illustrator 19.0.0, SVG Export Plug-In . SVG Version: 6.00 Build 0)  -->
<svg version="1.1" id="Layer_1" xmlns="http://www.w3.org/2000/svg" xmlns:xlink="http://www.w3.org/1999/xlink" x="0px" y="0px"
	 viewBox="0 0 497.822 497.822" style="enable-background:new 0 0 497.822 497.822;" xml:space="preserve">
<path style="fill:#B1BCB8;" d="M105.299,214.386c0-68.647,55.65-124.29,124.298-124.29s124.29,55.643,124.29,124.29"/>
<path style="fill:#0071AA;" d="M353.894,234.079c-10.878,0-19.692-8.814-19.692-19.692c0-57.675-46.931-104.598-104.598-104.598
	c-57.675,0-104.606,46.923-104.606,104.598c0,10.878-8.799,19.692-19.692,19.692c-10.878,0-19.692-8.814-19.692-19.692
	c0-79.392,64.599-143.982,143.99-143.982s143.982,64.591,143.982,143.982C373.587,225.264,364.765,234.079,353.894,234.079z"/>
<path style="fill:#B1BCB8;" d="M478.129,340.779c-68.647,0-124.298-55.643-124.298-124.29"/>
<path style="fill:#0071AA;" d="M478.129,360.472c-79.399,0-143.99-64.591-143.99-143.982c0-10.878,8.814-19.692,19.692-19.692
	c10.878,0,19.692,8.814,19.692,19.692c0,57.675,46.915,104.598,104.606,104.598c10.87,0,19.692,8.814,19.692,19.692
	C497.822,351.657,488.999,360.472,478.129,360.472z"/>
<circle style="fill:#32F9B1;" cx="108.765" cy="318.622" r="89.08"/>
<path style="fill:#2FD4EA;" d="M19.692,318.653c0-49.199,39.873-89.08,89.072-89.08s89.088,39.873,89.088,89.08"/>
<path style="fill:#0071AA;" d="M108.765,427.418C48.79,427.418,0,378.628,0,318.653s48.79-108.772,108.765-108.772
	s108.78,48.79,108.78,108.772S168.732,427.418,108.765,427.418z M108.765,249.265c-38.25,0-69.38,31.122-69.38,69.388
	s31.122,69.388,69.38,69.388s69.396-31.122,69.396-69.388S147.023,249.265,108.765,249.265z"/>
<g>
</g>
<g>
</g>
<g>
</g>
<g>
</g>
<g>
</g>
<g>
</g>
<g>
</g>
<g>
</g>
<g>
</g>
<g>
</g>
<g>
</g>
<g>
</g>
<g>
</g>
<g>
</g>
<g>
</g>
</svg>
