<?xml version="1.0" encoding="iso-8859-1"?>
<!-- Generator: Adobe Illustrator 19.0.0, SVG Export Plug-In . SVG Version: 6.00 Build 0)  -->
<svg version="1.1" id="Layer_1" xmlns="http://www.w3.org/2000/svg" xmlns:xlink="http://www.w3.org/1999/xlink" x="0px" y="0px"
	 viewBox="0 0 494.724 494.724" style="enable-background:new 0 0 494.724 494.724;" xml:space="preserve">
<path style="fill:#B1BCB8;" d="M107.594,19.698c125.747,125.739,125.747,329.602,0,455.341"/>
<path style="fill:#0071AA;" d="M107.594,494.724c-5.033,0-10.075-1.922-13.919-5.766c-7.704-7.696-7.704-20.157,0-27.845
	c117.87-117.862,117.87-309.634,0-427.488c-7.704-7.696-7.704-20.157,0-27.845c7.688-7.696,20.149-7.696,27.845,0
	c133.215,133.215,133.215,349.972,0,483.186C117.668,492.802,112.643,494.724,107.594,494.724z"/>
<path style="fill:#32F9B1;" d="M387.138,19.698c-125.739,125.739-125.739,329.602,0,455.341"/>
<path style="fill:#0071AA;" d="M387.138,494.724c-5.041,0-10.082-1.922-13.934-5.766c-133.207-133.215-133.207-349.972,0-483.186
	c7.704-7.696,20.157-7.696,27.845,0c7.704,7.696,7.704,20.157,0,27.845c-117.855,117.862-117.855,309.634,0,427.488
	c7.704,7.696,7.704,20.157,0,27.845C397.213,492.802,392.179,494.724,387.138,494.724z"/>
<path style="fill:#0071AA;" d="M355.024,267.057H139.716c-10.878,0-19.692-8.814-19.692-19.692c0-10.878,8.814-19.692,19.692-19.692
	h215.308c10.878,0,19.692,8.814,19.692,19.692C374.716,258.243,365.902,267.057,355.024,267.057z"/>
<g>
</g>
<g>
</g>
<g>
</g>
<g>
</g>
<g>
</g>
<g>
</g>
<g>
</g>
<g>
</g>
<g>
</g>
<g>
</g>
<g>
</g>
<g>
</g>
<g>
</g>
<g>
</g>
<g>
</g>
</svg>
