<?xml version="1.0" encoding="iso-8859-1"?>
<!-- Generator: Adobe Illustrator 19.0.0, SVG Export Plug-In . SVG Version: 6.00 Build 0)  -->
<svg version="1.1" id="Layer_1" xmlns="http://www.w3.org/2000/svg" xmlns:xlink="http://www.w3.org/1999/xlink" x="0px" y="0px"
	 viewBox="0 0 485.744 485.744" style="enable-background:new 0 0 485.744 485.744;" xml:space="preserve">
<path style="fill:#0071AA;" d="M19.698,485.741c-5.041,0-10.075-1.922-13.926-5.766c-7.696-7.696-7.696-20.165,0-27.845
	l334.769-334.754c7.696-7.696,20.157-7.696,27.845,0s7.696,20.165,0,27.845L33.617,479.975
	C29.773,483.819,24.747,485.741,19.698,485.741z"/>
<polyline style="fill:#32F9B1;" points="248.743,19.695 466.052,19.695 466.052,237.004 "/>
<polyline style="fill:#2FD4EA;" points="371.742,142.686 466.052,19.695 466.052,237.004 "/>
<path style="fill:#0071AA;" d="M466.052,256.696c-10.878,0-19.692-8.814-19.692-19.692V39.388H248.743
	c-10.87,0-19.692-8.814-19.692-19.692s8.822-19.692,19.692-19.692h217.309c10.878,0,19.692,8.814,19.692,19.692v217.309
	C485.744,247.882,476.93,256.696,466.052,256.696z"/>
<path style="fill:#0071AA;" d="M296.273,366.634c-5.041,0-10.082-1.922-13.934-5.766l-157.46-157.475
	c-7.696-7.696-7.696-20.165,0-27.845c7.696-7.696,20.157-7.696,27.845,0l157.46,157.475c7.704,7.696,7.704,20.165,0,27.845
	C306.363,364.712,301.314,366.634,296.273,366.634z"/>
<g>
</g>
<g>
</g>
<g>
</g>
<g>
</g>
<g>
</g>
<g>
</g>
<g>
</g>
<g>
</g>
<g>
</g>
<g>
</g>
<g>
</g>
<g>
</g>
<g>
</g>
<g>
</g>
<g>
</g>
</svg>
