<?xml version="1.0" encoding="iso-8859-1"?>
<!-- Generator: Adobe Illustrator 19.0.0, SVG Export Plug-In . SVG Version: 6.00 Build 0)  -->
<svg version="1.1" id="Layer_1" xmlns="http://www.w3.org/2000/svg" xmlns:xlink="http://www.w3.org/1999/xlink" x="0px" y="0px"
	 viewBox="0 0 495.206 495.206" style="enable-background:new 0 0 495.206 495.206;" xml:space="preserve">
<path style="fill:#B1BCB8;" d="M341.165,274.999c0-49.766,30.074-90.104,67.167-90.104c37.108,0,67.182,40.338,67.182,90.104
	c0,49.751-30.074,90.096-67.182,90.096"/>
<path style="fill:#C7D3CE;" d="M408.332,184.887c37.108,0,67.182,40.338,67.182,90.104c0,49.751-30.074,90.096-67.182,90.096"/>
<path style="fill:#0071AA;" d="M408.332,384.78c-10.878,0-19.692-8.814-19.692-19.692c0-10.878,8.814-19.692,19.692-19.692
	c25.75,0,47.49-32.24,47.49-70.404c0-38.172-21.748-70.412-47.49-70.412c-25.742,0-47.474,32.248-47.474,70.412
	c0,10.878-8.814,19.692-19.692,19.692c-10.878,0-19.692-8.814-19.692-19.692c0-60.55,38.967-109.796,86.859-109.796
	c47.907,0,86.875,49.254,86.875,109.796C495.214,335.533,456.239,384.78,408.332,384.78z"/>
<path style="fill:#32F9B1;" d="M127.953,382.905V161.516c0-27.168,22.048-49.215,49.199-49.215h8.2
	c27.167,0,49.215,22.048,49.215,49.215v221.381"/>
<path style="fill:#2FD4EA;" d="M127.953,161.516c0-27.168,22.048-49.215,49.199-49.215h8.2c27.167,0,49.215,22.048,49.215,49.215
	v221.381"/>
<path style="fill:#0071AA;" d="M234.567,402.597c-10.878,0-19.692-8.814-19.692-19.692V161.516
	c0-16.274-13.249-29.523-29.523-29.523h-8.2c-16.274,0-29.507,13.249-29.507,29.523v221.381c0,10.878-8.814,19.692-19.692,19.692
	s-19.692-8.814-19.692-19.692V161.516c0-37.99,30.909-68.907,68.892-68.907h8.2c37.983,0,68.907,30.917,68.907,68.907v221.381
	C254.259,393.783,245.445,402.597,234.567,402.597z"/>
<path style="fill:#32F9B1;" d="M234.567,382.905V161.516c0-27.168,22.016-49.215,49.184-49.215h8.2
	c27.183,0,49.215,22.048,49.215,49.215v221.381"/>
<path style="fill:#2FD4EA;" d="M234.567,161.516c0-27.168,22.016-49.215,49.184-49.215h8.2c27.183,0,49.215,22.048,49.215,49.215
	v221.381"/>
<path style="fill:#0071AA;" d="M341.165,402.597c-10.878,0-19.692-8.814-19.692-19.692V161.516
	c0-16.274-13.249-29.523-29.523-29.523h-8.2c-16.258,0-29.491,13.249-29.491,29.523v221.381c0,10.878-8.814,19.692-19.692,19.692
	c-10.878,0-19.692-8.814-19.692-19.692V161.516c0-37.99,30.901-68.907,68.876-68.907h8.2c37.99,0,68.907,30.917,68.907,68.907
	v221.381C360.858,393.783,352.043,402.597,341.165,402.597z"/>
<path style="fill:#B1BCB8;" d="M19.684,161.516c0-27.168,22.032-49.215,49.199-49.215h8.2c27.168,0,49.199,22.048,49.199,49.215
	v221.381"/>
<path style="fill:#C7D3CE;" d="M19.684,161.516c0-27.168,22.032-49.215,49.199-49.215h8.2c27.168,0,49.199,22.048,49.199,49.215"/>
<path style="fill:#0071AA;" d="M126.291,402.597c-10.878,0-19.692-8.814-19.692-19.692V161.516
	c0-16.274-13.241-29.523-29.507-29.523h-8.2c-16.274,0-29.507,13.249-29.507,29.523c0,10.878-8.814,19.692-19.692,19.692
	S0,172.394,0,161.516c0-37.99,30.909-68.907,68.892-68.907h8.2c37.983,0,68.892,30.917,68.892,68.907v221.381
	C145.983,393.783,137.161,402.597,126.291,402.597z"/>
<g>
</g>
<g>
</g>
<g>
</g>
<g>
</g>
<g>
</g>
<g>
</g>
<g>
</g>
<g>
</g>
<g>
</g>
<g>
</g>
<g>
</g>
<g>
</g>
<g>
</g>
<g>
</g>
<g>
</g>
</svg>
