<?xml version="1.0" encoding="iso-8859-1"?>
<!-- Generator: Adobe Illustrator 19.0.0, SVG Export Plug-In . SVG Version: 6.00 Build 0)  -->
<svg version="1.1" id="Capa_1" xmlns="http://www.w3.org/2000/svg" xmlns:xlink="http://www.w3.org/1999/xlink" x="0px" y="0px"
	 viewBox="0 0 512 512" style="enable-background:new 0 0 512 512;" xml:space="preserve">
<path style="fill:#F9D366;" d="M417.699,459.588c0,28.944-75.149,52.412-167.842,52.412c-23.907,0-46.655-1.557-67.239-4.378
	c-59.235-8.098-100.613-26.561-100.613-48.034l22.768-134.844c0,0,0,0,0-0.01l87.803,0.01l202.355,0.01L417.699,459.588z"/>
<path style="fill:#DD8833;" d="M193.797,335.495l-11.18,172.126c-59.235-8.098-100.613-26.561-100.613-48.034l22.768-134.844
	c0,0,0,0,0-0.01l87.803,0.01L193.797,335.495z"/>
<circle style="fill:#CF8BFC;" cx="249.856" cy="194.78" r="194.78"/>
<path style="fill:#CFB1FC;" d="M249.851,0c-5.277,0-10.502,0.217-15.672,0.629c57.661,4.591,108.242,34.294,140.811,78.168
	c13.325,17.949-2.717,42.663-24.66,38.393c-6.464-1.258-13.175-1.823-20.054-1.616c-46.436,1.402-84.543,38.607-86.975,85.001
	c-2.718,51.84,38.511,94.724,89.757,94.724c0.266,0,0.533-0.001,0.799-0.003c22.323-0.194,33.456,27.097,17.092,42.283
	c-31.166,28.923-71.816,47.766-116.771,51.345c5.17,0.412,10.396,0.629,15.672,0.629c107.572,0,194.777-87.204,194.777-194.777
	S357.424,0,249.851,0z"/>
<path style="fill:#9966CC;" d="M141.276,194.777c0-92.76,64.845-170.366,151.676-189.982C279.086,1.662,264.664,0,249.851,0
	C142.28,0,55.076,87.204,55.076,194.777s87.204,194.777,194.777,194.777c14.813,0,29.234-1.662,43.1-4.794
	C206.121,365.142,141.276,287.536,141.276,194.777z"/>
<g>
	<path style="fill:#F9D366;" d="M426.275,111.939l22.635-4.589c10.686-2.166,10.686-17.438,0-19.605l-22.635-4.589
		c-22.305-4.522-39.739-21.955-44.261-44.261l-4.589-22.635c-2.166-10.686-17.438-10.686-19.605,0l-4.589,22.635
		c-4.522,22.305-21.955,39.739-44.261,44.261l-22.635,4.589c-10.686,2.166-10.686,17.438,0,19.605l22.635,4.589
		c22.305,4.522,39.739,21.955,44.261,44.261l4.589,22.635c2.166,10.686,17.438,10.686,19.605,0l4.589-22.635
		C386.537,133.893,403.97,116.461,426.275,111.939z"/>
	<path style="fill:#F9D366;" d="M327.963,223.122l6.612-1.341c8.726-1.769,8.726-14.24,0-16.009l-6.612-1.341
		c-16.656-3.377-29.673-16.394-33.05-33.05l-1.341-6.612c-1.769-8.726-14.24-8.726-16.009,0l-1.341,6.612
		c-3.377,16.656-16.394,29.673-33.05,33.05l-6.612,1.341c-8.726,1.769-8.726,14.24,0,16.009l6.612,1.341
		c16.656,3.377,29.673,16.394,33.05,33.05l1.341,6.612c1.769,8.726,14.24,8.726,16.009,0l1.341-6.612
		C298.29,239.516,311.307,226.499,327.963,223.122z"/>
	<path style="fill:#F9D366;" d="M217.305,106.677c-4.328,0-7.837-3.509-7.837-7.837V78.466c0-4.328,3.509-7.837,7.837-7.837
		s7.837,3.509,7.837,7.837V98.84C225.141,103.168,221.633,106.677,217.305,106.677z"/>
	<path style="fill:#F9D366;" d="M217.305,161.532c-4.328,0-7.837-3.509-7.837-7.837v-20.375c0-4.328,3.509-7.837,7.837-7.837
		s7.837,3.509,7.837,7.837v20.375C225.141,158.023,221.633,161.532,217.305,161.532z"/>
	<path style="fill:#F9D366;" d="M254.92,123.917h-20.374c-4.328,0-7.837-3.509-7.837-7.837s3.509-7.837,7.837-7.837h20.374
		c4.328,0,7.837,3.509,7.837,7.837S259.248,123.917,254.92,123.917z"/>
	<path style="fill:#F9D366;" d="M200.065,123.917H179.69c-4.328,0-7.837-3.509-7.837-7.837s3.509-7.837,7.837-7.837h20.375
		c4.328,0,7.837,3.509,7.837,7.837S204.393,123.917,200.065,123.917z"/>
</g>
<g>
</g>
<g>
</g>
<g>
</g>
<g>
</g>
<g>
</g>
<g>
</g>
<g>
</g>
<g>
</g>
<g>
</g>
<g>
</g>
<g>
</g>
<g>
</g>
<g>
</g>
<g>
</g>
<g>
</g>
</svg>
