<?xml version="1.0" encoding="iso-8859-1"?>
<!-- Generator: Adobe Illustrator 19.0.0, SVG Export Plug-In . SVG Version: 6.00 Build 0)  -->
<svg version="1.1" id="Layer_1" xmlns="http://www.w3.org/2000/svg" xmlns:xlink="http://www.w3.org/1999/xlink" x="0px" y="0px"
	 viewBox="0 0 493.631 493.631" style="enable-background:new 0 0 493.631 493.631;" xml:space="preserve">
<circle style="fill:#32F9B1;" cx="246.816" cy="288.831" r="185.108"/>
<path style="fill:#2FD4EA;" d="M246.816,103.723c102.235,0,185.108,82.873,185.108,185.108S349.05,473.939,246.816,473.939"/>
<path style="fill:#0071AA;" d="M246.816,493.631c-112.931,0-204.8-91.876-204.8-204.8c0-112.939,91.869-204.8,204.8-204.8
	s204.8,91.861,204.8,204.8C451.616,401.755,359.747,493.631,246.816,493.631z M246.816,123.416
	c-91.207,0-165.415,74.201-165.415,165.415c0,91.199,74.208,165.415,165.415,165.415s165.415-74.216,165.415-165.415
	C412.231,197.616,338.022,123.416,246.816,123.416z"/>
<path style="fill:#32F9B1;" d="M281.403,102.432c0-45.694,37.014-82.739,82.723-82.739"/>
<path style="fill:#0071AA;" d="M281.403,122.124c-10.886,0-19.692-8.814-19.692-19.692c0-27.372,10.65-53.09,29.987-72.428
	S336.762,0,364.111,0c0.016,0,0.016,0,0.016,0c10.878,0,19.692,8.83,19.692,19.692c0,10.878-8.814,19.692-19.692,19.692l0,0
	c0,0,0,0-0.016,0c-16.841,0-32.658,6.554-44.568,18.464c-11.894,11.91-18.448,27.735-18.448,44.583
	C301.095,113.31,292.273,122.124,281.403,122.124z"/>
<path style="fill:#32F9B1;" d="M213.157,102.432c0-45.694-37.022-82.739-82.723-82.739"/>
<path style="fill:#0071AA;" d="M213.157,122.124c-10.878,0-19.692-8.814-19.692-19.692c0-16.849-6.554-32.673-18.464-44.583
	c-11.902-11.91-27.727-18.464-44.56-18.464h-0.008c-10.878,0-19.692-8.814-19.692-19.692C110.742,8.83,119.54,0,130.434,0h0.008
	c27.364,0,53.075,10.665,72.405,30.003c19.338,19.338,30.003,45.064,30.003,72.428C232.85,113.31,224.028,122.124,213.157,122.124z"
	/>
<g>
</g>
<g>
</g>
<g>
</g>
<g>
</g>
<g>
</g>
<g>
</g>
<g>
</g>
<g>
</g>
<g>
</g>
<g>
</g>
<g>
</g>
<g>
</g>
<g>
</g>
<g>
</g>
<g>
</g>
</svg>
