<svg id="Capa_1" enable-background="new 0 0 512 512" height="512" viewBox="0 0 512 512" width="512" xmlns="http://www.w3.org/2000/svg" xmlns:xlink="http://www.w3.org/1999/xlink"><linearGradient id="SVGID_1_" gradientUnits="userSpaceOnUse" x1="256" x2="256" y1="124" y2="388"><stop offset="0" stop-color="#2af598"/><stop offset="1" stop-color="#009efd"/></linearGradient><path d="m512 228c-24.622 0-41.236-20.293-55.895-38.197-9.412-11.496-21.125-25.803-29.105-25.803-6.521 0-15.641 11.818-23.688 22.246-14.355 18.603-32.222 41.754-62.979 41.754-31.137 0-49.086-24.463-62.192-42.326-7.454-10.159-15.903-21.674-21.808-21.674-6.325 0-15.562 11.846-23.712 22.297-14.488 18.58-32.519 41.703-62.954 41.703-30.711 0-48.504-24.249-61.495-41.954-7.953-10.838-16.177-22.046-22.505-22.046-6.14 0-14.208 10.899-22.011 21.439-13.296 17.961-31.506 42.561-63.656 42.561v-40c11.186 0 19.365-9.958 31.506-26.36 12.414-16.77 27.863-37.64 54.161-37.64 26.591 0 42.207 21.282 54.754 38.383 11.695 15.939 19.5 25.617 29.246 25.617 10.145 0 19.023-10.413 31.412-26.3 13.78-17.671 29.398-37.7 55.255-37.7 26.167 0 41.632 21.077 54.058 38.012 11.864 16.17 19.8 25.988 29.942 25.988 10.353 0 18.735-9.895 31.312-26.192 12.998-16.844 29.176-37.808 55.354-37.808 26.927 0 44.527 21.497 60.055 40.463 7.208 8.803 19.271 23.537 24.945 23.537zm0 120c-5.674 0-17.737-14.734-24.945-23.537-15.528-18.966-33.128-40.463-60.055-40.463-26.178 0-42.356 20.964-55.355 37.808-12.576 16.297-20.959 26.192-31.312 26.192-10.142 0-18.078-9.818-29.942-25.988-12.426-16.935-27.89-38.012-54.058-38.012-25.857 0-41.475 20.029-55.255 37.7-12.388 15.887-21.267 26.3-31.412 26.3-9.746 0-17.55-9.678-29.246-25.617-12.546-17.101-28.162-38.383-54.753-38.383-26.297 0-41.747 20.87-54.16 37.64-12.142 16.402-20.321 26.36-31.507 26.36v40c32.15 0 50.36-24.6 63.656-42.561 7.802-10.54 15.87-21.439 22.011-21.439 6.329 0 14.552 11.208 22.505 22.046 12.991 17.705 30.783 41.954 61.495 41.954 30.436 0 48.467-23.123 62.955-41.703 8.15-10.451 17.387-22.297 23.712-22.297 5.904 0 14.353 11.515 21.808 21.674 13.105 17.863 31.054 42.326 62.191 42.326 30.757 0 48.623-23.151 62.979-41.754 8.047-10.428 17.167-22.246 23.688-22.246 7.98 0 19.693 14.307 29.105 25.803 14.659 17.904 31.273 38.197 55.895 38.197z" fill="url(#SVGID_1_)"/></svg>