<?xml version="1.0" encoding="UTF-8"?>
<svg xmlns="http://www.w3.org/2000/svg" xmlns:xlink="http://www.w3.org/1999/xlink" width="512" height="512" viewBox="0 0 52 58" version="1.1"><!-- Generator: Sketch 51.3 (57544) - http://www.bohemiancoding.com/sketch --><title>003 - Hamsa</title><desc>Created with Sketch.</desc><defs/><g id="Page-1" stroke="none" stroke-width="1" fill="none" fill-rule="evenodd"><g id="003---Hamsa" fill-rule="nonzero"><path d="M45,32.89 L45,39 C45,49.4934102 36.4934102,58 26,58 C15.5065898,58 7,49.4934102 7,39 L7,32.89 C7,32.89 8,26.89 0,26.89 C0,26.89 7,15.89 14,26.89 L14,9 C14,6.790861 15.790861,5 18,5 C20.209139,5 22,6.790861 22,9 L22,4 C22,1.790861 23.790861,4.4408921e-16 26,0 C28.209139,-4.4408921e-16 30,1.790861 30,4 L30,9 C30,6.790861 31.790861,5 34,5 C36.209139,5 38,6.790861 38,9 L38,26.89 C45,15.89 52,26.89 52,26.89 C44,26.89 45,32.89 45,32.89 Z" id="Shape" fill="#955BA5"/><path d="M22,27 C21.4477153,27 21,26.5522847 21,26 L21,9 C21,8.44771525 21.4477153,8 22,8 C22.5522847,8 23,8.44771525 23,9 L23,26 C23,26.5522847 22.5522847,27 22,27 Z" id="Shape" fill="#894B9D"/><path d="M30,27 C29.4477153,27 29,26.5522847 29,26 L29,9 C29,8.44771525 29.4477153,8 30,8 C30.5522847,8 31,8.44771525 31,9 L31,26 C31,26.5522847 30.5522847,27 30,27 Z" id="Shape" fill="#894B9D"/><path d="M26,53 C22.3218304,52.9314592 18.724155,51.9111807 15.5576,50.0386 C15.0759525,49.7681185 14.9047686,49.1583975 15.17525,48.67675 C15.4457315,48.1951025 16.0554525,48.0239186 16.5371,48.2944 C19.4049724,49.9979801 22.6650354,50.9300861 26,51 C29.3618052,50.9282829 32.6469937,49.9823808 35.5322,48.2554 C35.8432354,48.0795539 36.2244568,48.0830008 36.5322617,48.2644423 C36.8400667,48.4458838 37.0276923,48.7777546 37.0244617,49.1350423 C37.0212312,49.4923299 36.8276354,49.8207539 36.5166,49.9966 C33.3316333,51.8946345 29.7069689,52.92979 26,53 Z" id="Shape" fill="#894B9D"/><path d="M35.9829,33.8511 C35.8111749,33.8511769 35.6423584,33.8067678 35.4929,33.7222 C32.6174215,32.0087553 29.3465293,31.0707887 26,31 C22.6637969,31.0700578 19.4025573,32.0026477 16.5337,33.707 C16.2216228,33.8920865 15.8337744,33.8936108 15.5202521,33.7109829 C15.2067297,33.5283551 15.0167277,33.190231 15.0237767,32.8274645 C15.0308256,32.464698 15.2338196,32.1342103 15.5542,31.9639 C22.563,28.0239 29.4683,28.0303 36.4742,31.98 C36.87022,32.2032666 37.0658027,32.6655655 36.9502575,33.1052576 C36.8347123,33.5449497 36.4371205,33.8513703 35.9825,33.8511 L35.9829,33.8511 Z" id="Shape" fill="#894B9D"/><path d="M40,41 C40,41 33.732,48 26,48 C18.268,48 12,41 12,41 C12,41 18.268,34 26,34 C33.732,34 40,41 40,41 Z" id="Shape" fill="#FB7B76"/><path d="M39,41 C39,41 33.18,48 26,48 C18.82,48 13,41 13,41 C13,41 18.82,34 26,34 C33.18,34 39,41 39,41 Z" id="Shape" fill="#ECF0F1"/><circle id="Oval" fill="#2FA8CC" cx="26" cy="41" r="7"/><circle id="Oval" fill="#67B9CC" cx="26" cy="41" r="5"/><circle id="Oval" fill="#2C3E50" cx="26" cy="41" r="3"/><circle id="Oval" fill="#ECF0F1" cx="23" cy="38" r="3"/></g></g></svg>
