<svg height="512pt" viewBox="-65 0 512 512" width="512pt" xmlns="http://www.w3.org/2000/svg"><path d="m290.214844 263.039062c0-51.75 40.949218-93.929687 92.214844-95.917968-16.25 17.195312-26.214844 40.394531-26.214844 65.917968v113.960938c0 91.128906-73.871094 165-165 165l-60-165zm0 0" fill="#01b1bc"/><path d="m92.214844 263.039062c0-51.75-40.949219-93.929687-92.214844-95.917968 16.25 17.195312 26.214844 40.394531 26.214844 65.917968v113.960938c0 91.128906 73.875 165 165 165v-165zm0 0" fill="#3ac7cf"/><path d="m290.214844 63.003906c0-18.226562-14.773438-33-33-33-18.226563 0-33 14.773438-33 33l-30 87 63 70 33-70zm0 0" fill="#00585d"/><path d="m194.214844 150.003906v196.996094h96s0-128.523438 0-196.996094zm0 0" fill="#01939d"/><path d="m158.214844 63.003906c0-18.226562-14.773438-33-33-33-18.226563 0-33 14.773438-33 33v87l33 70 63-70zm0 0" fill="#01b1bc"/><path d="m92.214844 150.003906v196.996094h96s0-128.523438 0-196.996094zm0 0" fill="#74dce2"/><path d="m191.214844 0-20 30v160.003906l53-70v-87.003906c0-18.226562-14.773438-33-33-33zm0 0" fill="#00767d"/><path d="m158.214844 33v87.003906l33 70v-190.003906c-18.226563 0-33 14.773438-33 33zm0 0" fill="#01939d"/><path d="m224.214844 120.003906h-33l-20 30v151.835938h53c0-.003906 0-113.367188 0-181.835938zm0 0" fill="#01b1bc"/><path d="m158.214844 120.003906h33v181.835938h-33zm0 0" fill="#3ac7cf"/><path d="m191.214844 248-49.5 99 49.5 99c54.675781 0 99-44.324219 99-99s-44.324219-99-99-99zm0 0" fill="#74dce2"/><path d="m92.214844 347c0 54.675781 44.324218 99 99 99v-198c-54.675782 0-99 44.324219-99 99zm0 0" fill="#adf2f5"/><path d="m191.214844 302-22.5 45 22.5 45c24.851562 0 45-20.148438 45-45s-20.148438-45-45-45zm0 0" fill="#928bff"/><path d="m146.214844 347c0 24.851562 20.148437 45 45 45v-90c-24.851563 0-45 20.148438-45 45zm0 0" fill="#83b3f1"/></svg>