<?xml version="1.0" encoding="iso-8859-1"?>
<!-- Generator: Adobe Illustrator 19.0.0, SVG Export Plug-In . SVG Version: 6.00 Build 0)  -->
<svg version="1.1" id="Layer_1" xmlns="http://www.w3.org/2000/svg" xmlns:xlink="http://www.w3.org/1999/xlink" x="0px" y="0px"
	 viewBox="0 0 485.975 485.975" style="enable-background:new 0 0 485.975 485.975;" xml:space="preserve">
<path style="fill:#B1BCB8;" d="M399.762,282.104c36.738,0,66.521,29.791,66.521,66.536c0,36.738-29.783,66.536-66.521,66.536
	c-36.754,0-66.536-29.798-66.536-66.536"/>
<path style="fill:#0071AA;" d="M399.762,434.869c-47.545,0-86.229-38.684-86.229-86.229c0-10.878,8.814-19.692,19.692-19.692
	s19.692,8.814,19.692,19.692c0,25.828,21.016,46.844,46.844,46.844c25.828,0,46.828-21.016,46.828-46.844s-21-46.844-46.828-46.844
	c-10.878,0-19.692-8.814-19.692-19.692c0-10.878,8.814-19.692,19.692-19.692c47.537,0,86.213,38.684,86.213,86.229
	S447.299,434.869,399.762,434.869z"/>
<path style="fill:#B1BCB8;" d="M356.777,415.161c0,26.797-21.725,48.522-48.522,48.522"/>
<path style="fill:#0071AA;" d="M308.256,483.383c-10.878,0-19.692-8.814-19.692-19.692c0-10.878,8.814-19.692,19.692-19.692
	c15.896,0,28.83-12.934,28.83-28.83c0-10.878,8.814-19.692,19.692-19.692c10.878,0,19.692,8.814,19.692,19.692
	C376.47,452.781,345.876,483.383,308.256,483.383z"/>
<path style="fill:#32F9B1;" d="M148.228,343.568V80.715c0-32.256,26.167-58.431,58.415-58.431h67.954
	c32.264,0,58.447,26.175,58.447,58.431V343.56"/>
<path style="fill:#2FD4EA;" d="M148.228,80.715c0-32.256,26.167-58.431,58.415-58.431h67.954c32.264,0,58.447,26.175,58.447,58.431
	V343.56"/>
<path style="fill:#0071AA;" d="M333.044,363.26c-10.878,0-19.692-8.814-19.692-19.692V80.715c0-21.362-17.384-38.739-38.754-38.739
	h-67.954c-21.354,0-38.723,17.376-38.723,38.739V343.56c0,10.878-8.814,19.692-19.692,19.692s-19.692-8.814-19.692-19.692V80.715
	c0-43.079,35.037-78.123,78.108-78.123h67.954c43.079,0,78.139,35.044,78.139,78.123V343.56
	C352.736,354.438,343.914,363.26,333.044,363.26z"/>
<path style="fill:#B1BCB8;" d="M19.684,80.715c0-32.256,26.167-58.431,58.415-58.431h9.736c32.248,0,58.415,26.175,58.415,58.431
	V343.56"/>
<path style="fill:#C7D3CE;" d="M19.684,80.715c0-32.256,26.167-58.431,58.415-58.431h9.736c32.248,0,58.415,26.175,58.415,58.431"/>
<path style="fill:#0071AA;" d="M146.259,363.26c-10.878,0-19.692-8.814-19.692-19.692V80.715c0-21.362-17.369-38.739-38.723-38.739
	h-9.736c-21.354,0-38.723,17.376-38.723,38.739c0,10.878-8.814,19.692-19.692,19.692S0,91.593,0,80.715
	C0,37.636,35.044,2.592,78.108,2.592h9.736c43.071,0,78.108,35.044,78.108,78.123V343.56
	C165.951,354.438,157.137,363.26,146.259,363.26z"/>
<g>
</g>
<g>
</g>
<g>
</g>
<g>
</g>
<g>
</g>
<g>
</g>
<g>
</g>
<g>
</g>
<g>
</g>
<g>
</g>
<g>
</g>
<g>
</g>
<g>
</g>
<g>
</g>
<g>
</g>
</svg>
