<svg height="469pt" viewBox="-6 0 469 469.65932" width="469pt" xmlns="http://www.w3.org/2000/svg"><path d="m441.988281 240c0 22.089844-17.910156 40-40 40-22.09375 0-40-17.910156-40-40s17.90625-40 40-40c22.089844 0 40 17.910156 40 40zm0 0" fill="#acabb1"/><path d="m398.707031 430.082031c2.480469 2.441407 3.097657 6.203125 1.527344 9.3125-1.570313 3.105469-4.972656 4.835938-8.40625 4.285157l-12.882813-2.078126-5.917968 11.597657c-1.5625 3.089843-4.941406 4.8125-8.355469 4.265625-3.417969-.546875-6.089844-3.242188-6.605469-6.664063l-2.078125-12.800781-12.800781-2.078125c-3.421875-.519531-6.117188-3.1875-6.664062-6.605469-.550782-3.417968 1.175781-6.796875 4.265624-8.355468l11.597657-5.921876-2.078125-12.878906c-.554688-3.4375 1.179687-6.835937 4.285156-8.40625 3.105469-1.570312 6.871094-.953125 9.3125 1.527344l9.199219 9.199219 11.523437-5.921875c3.097656-1.625 6.894532-1.042969 9.371094 1.429687 2.472656 2.476563 3.050781 6.273438 1.425781 9.371094l-5.917969 11.519531zm0 0" fill="#ff9811"/><path d="m353.988281 80c0 2.71875-.160156 5.359375-.402343 8h-31.597657l-24-8v-24l16-8v-16l8-16c20.152344 15.101562 32.011719 38.816406 32 64zm0 0" fill="#00ccb3"/><path d="m321.988281 88h31.597657c-1.71875 17.046875-8.871094 33.089844-20.398438 45.761719l-27.199219-21.761719h-16v16l-8 8v23.601562c-2.640625.238282-5.28125.398438-8 .398438-30.949219.007812-59.121093-17.847656-72.320312-45.839844l32.320312 13.839844h24v-16l-16-8v-16l24-16v-16l-8-8v-24l-13.679687-18.238281c9.421875-3.835938 19.503906-5.792969 29.679687-5.761719 17.308594-.00390625 34.152344 5.609375 48 16l-8 16v16l-16 8v24zm0 0" fill="#5aaae7"/><path d="m333.1875 133.761719c-13.277344 14.65625-31.523438 23.867187-51.199219 25.839843v-23.601562l8-8v-16h16zm0 0" fill="#00ccb3"/><path d="m265.988281 56v16l-24 16v16l16 8v16h-24l-32.320312-13.839844c-5.09375-10.664062-7.71875-22.339844-7.679688-34.160156-.019531-32.71875 19.921875-62.136719 50.320313-74.238281l13.679687 18.238281v24zm0 0" fill="#00ccb3"/><path d="m153.828125 312.160156-11.359375-11.28125-5.601562-5.679687-5.679688-5.679688 54.398438-54.398437c11.167968-11.304688 25.507812-18.949219 41.121093-21.921875 9.441407-1.757813 18.71875-1.757813 23.28125 2.800781 4.558594 4.558594 4.558594 13.839844 2.800781 23.28125-2.972656 15.609375-10.617187 29.949219-21.921874 41.117188l-20.480469 20.480468-33.917969 33.921875-5.679688-5.679687-5.683593-5.601563zm0 0" fill="#3d9ae2"/><path d="m213.828125 304.320312c4.742187 4.695313 6.050781 11.851563 3.277344 17.921876l-18.878907 41.679687c-1.109374 2.371094-3.300781 4.054687-5.878906 4.515625-2.578125.464844-5.21875-.355469-7.082031-2.195312l-20.160156-20.160157 5.683593-16.960937 5.679688 5.679687 33.917969-33.921875zm0 0" fill="#1e81ce"/><path d="m153.828125 312.160156 11.277344 11.359375-22.636719 11.28125-5.203125-5.199219c-.234375-.34375-.535156-.644531-.878906-.882812l-5.199219-5.199219 11.28125-22.640625zm0 0" fill="#1e81ce"/><path d="m165.105469 255.601562-33.917969 33.917969 5.679688 5.679688-16.960938 5.679687-20.160156-20.160156c-1.839844-1.859375-2.660156-4.503906-2.199219-7.078125.460937-2.578125 2.148437-4.773437 4.519531-5.878906l41.679688-18.882813c6.070312-2.769531 13.226562-1.460937 17.921875 3.28125zm0 0" fill="#1e81ce"/><path d="m71.1875 76.960938c3.089844 1.558593 4.8125 4.9375 4.265625 8.355468-.550781 3.417969-3.246094 6.085938-6.664063 6.605469l-12.800781 2.078125-2.082031 12.800781c-.515625 3.421875-3.1875 6.117188-6.601562 6.664063-3.417969.546875-6.796876-1.175782-8.359376-4.265625l-5.917968-11.597657-12.878906 2.078126c-3.4375.550781-6.835938-1.179688-8.40625-4.285157-1.574219-3.109375-.957032-6.871093 1.523437-9.3125l9.203125-9.203125-5.921875-11.519531c-1.625-3.097656-1.046875-6.894531 1.429687-9.371094 2.472657-2.472656 6.269532-3.054687 9.371094-1.429687l11.519532 5.921875 9.199218-9.199219c2.441406-2.480469 6.207032-3.097656 9.3125-1.527344 3.105469 1.570313 4.839844 4.96875 4.289063 8.40625l-2.082031 12.878906zm0 0" fill="#ff9811"/><path d="m148.160156 306.507812 39.601563-39.597656 11.3125 11.3125-39.597657 39.597656zm0 0" fill="#1e81ce"/><path d="m219.769531 263.785156-4.390625-13.175781-13.175781-4.394531 5.0625-15.199219 16.96875 5.65625c2.386719.796875 4.261719 2.667969 5.058594 5.054687l5.652343 16.96875zm0 0" fill="#1e81ce"/><g fill="#78b9eb"><path d="m136.84375 397.019531 22.628906-22.625 11.3125 11.3125-22.628906 22.628907zm0 0"/><path d="m57.65625 317.820312 22.628906-22.625 11.3125 11.3125-22.625 22.628907zm0 0"/><path d="m255.644531 323.480469 22.628907-22.628907 11.3125 11.316407-22.628907 22.625zm0 0"/><path d="m233.019531 346.113281 11.3125-11.316406 11.316407 11.316406-11.316407 11.3125zm0 0"/><path d="m131.191406 199.03125 22.628906-22.625 11.3125 11.3125-22.625 22.628906zm0 0"/><path d="m108.570312 221.65625 11.3125-11.3125 11.316407 11.3125-11.316407 11.316406zm0 0"/></g><path d="m393.988281 224h16v16h-16zm0 0" fill="#c6c5ca"/><path d="m401.988281 248h16v16h-16zm0 0" fill="#c6c5ca"/><path d="m220.332031 426.347656 47.996094-48 11.316406 11.3125-48 48zm0 0" fill="#78b9eb"/><path d="m188.335938 458.34375 15.996093-15.996094 11.3125 11.3125-15.996093 16zm0 0" fill="#78b9eb"/><path d="m28.328125 226.347656 40-40 11.3125 11.3125-39.996094 40zm0 0" fill="#78b9eb"/><path d="m.328125 254.34375 12-12 11.3125 11.316406-11.996094 11.996094zm0 0" fill="#78b9eb"/><path d="m108.332031 426.34375 15.996094-16 11.3125 11.316406-15.996094 15.996094zm0 0" fill="#78b9eb"/><path d="m28.328125 346.34375 16-16 11.3125 11.316406-15.996094 15.996094zm0 0" fill="#78b9eb"/><path d="m401.988281 56h16v16h-16zm0 0" fill="#ff9811"/><path d="m441.988281 104h16v16h-16zm0 0" fill="#ff9811"/><path d="m121.988281 8h16v16h-16zm0 0" fill="#ff9811"/><path d="m129.988281 96h16v16h-16zm0 0" fill="#ff9811"/><path d="m136.867188 329.121094c3.003906 3 4.691406 7.074218 4.691406 11.320312s-1.6875 8.316406-4.691406 11.320313c-6.238282 6.238281-27.679688 17.597656-33.921876 11.277343-6.238281-6.320312 5.042969-27.679687 11.28125-33.917968 3-3.003906 7.074219-4.691406 11.320313-4.691406s8.320313 1.6875 11.320313 4.691406zm0 0" fill="#ff5023"/></svg>