<svg height="464pt" viewBox="0 0 464 464" width="464pt" xmlns="http://www.w3.org/2000/svg"><path d="m78.808594 407.910156c-8.632813.492188-17.09375-2.554687-23.433594-8.4375-32.605469-32.609375 34.320312-134.730468 113.839844-214.257812 79.519531-79.527344 181.671875-146.398438 214.257812-113.847656 32.605469 32.632812-34.320312 134.738281-113.871094 214.234374-65.378906 65.421876-146.066406 122.308594-190.792968 122.308594zm281.304687-329.023437c-29.601562 0-99.640625 37.707031-179.585937 117.601562-94.625 94.710938-130.070313 175.433594-113.839844 191.671875 16.234375 16.238282 96.984375-19.199218 191.625-113.847656s130.078125-175.382812 113.847656-191.632812c-3.363281-2.796876-7.691406-4.160157-12.046875-3.792969zm0 0" fill="#ef748e"/><path d="m379.425781 234.425781c0 88.363281-71.636719 160-160 160-88.367187 0-160-71.636719-160-160 0-88.367187 71.632813-160 160-160 88.363281 0 160 71.632813 160 160zm0 0" fill="#ffc5c3"/><path d="m219.425781 270.398438c.054688 1.339843.1875 2.675781.398438 4h-28.398438c-19.882812 0-36 16.121093-36 36 0 19.882812 16.117188 36 36 36h46.175781c-6.277343 16.929687 1.234376 35.859374 17.40625 43.882812 72.746094-16.59375 124.363282-81.265625 124.417969-155.882812h-124c-19.882812 0-36 16.121093-36 36zm0 0" fill="#fbb1b3"/><path d="m69.695312 178.398438h41.730469c19.878907 0 36-16.117188 36-36-.039062-4.097657-.789062-8.15625-2.210937-12h46.210937c13.253907-.007813 25.433594-7.304688 31.699219-18.988282 6.261719-11.6875 5.597656-25.867187-1.734375-36.914062-.664063 0-1.300781-.097656-1.964844-.097656-66.71875.039062-126.40625 41.492187-149.730469 104zm0 0" fill="#fbaeb3"/><path d="m417.601562 61.398438-41.648437 34.707031-41.648437-34.707031c-4.03125-3.363282-6.359376-8.347657-6.351563-13.597657v-.386719c0-4.679687 1.859375-9.167968 5.167969-12.476562 6.210937-6.214844 16.050781-6.914062 23.078125-1.640625l19.753906 14.808594 19.75-14.808594c7.03125-5.273437 16.867187-4.574219 23.082031 1.640625 3.308594 3.308594 5.164063 7.796875 5.167969 12.476562v.417969c-.003906 5.242188-2.328125 10.210938-6.351563 13.566407zm0 0" fill="#f55648"/><path d="m333.0625 303.710938-41.636719 34.6875-41.648437-34.710938c-4.039063-3.363281-6.367188-8.347656-6.351563-13.597656v-.417969c-.003906-4.683594 1.855469-9.175781 5.167969-12.488281 6.222656-6.199219 16.058594-6.882813 23.078125-1.597656l19.753906 14.8125 19.773438-14.789063c7.019531-5.285156 16.855469-4.601563 23.082031 1.597656 3.3125 3.3125 5.175781 7.804688 5.175781 12.488281v.417969c.007813 5.257813-2.335937 10.25-6.394531 13.597657zm0 0" fill="#e85244"/><path d="m269.601562 285.601562c36.15625-35.515624 68.058594-75.113281 95.0625-118 .472657-.761718.828126-1.589843 1.046876-2.457031-2.398438-5.023437-5.597657-11.28125-8.472657-16l-1.359375 1.597657c-26.859375 45.359374-59.6875 86.910156-97.597656 123.539062-36.21875 37.460938-77.238281 69.964844-121.984375 96.664062.230469.144532-7.472656 8.214844-7.304687 8.421876 3.199218 3.898437 5.878906 6.769531 6.992187 8 5.902344-1.925782 11.59375-4.457032 16.976563-7.550782 42.351562-26.847656 81.484374-58.457031 116.640624-94.214844zm0 0" fill="#ef748e"/><path d="m72 0-4.6875 9.375c-7.242188 14.488281-19.945312 25.507812-35.3125 30.625 15.367188 5.117188 28.070312 16.136719 35.3125 30.625l4.6875 9.375 4.6875-9.375c7.242188-14.488281 19.945312-25.507812 35.3125-30.625-15.367188-5.117188-28.070312-16.136719-35.3125-30.625zm0 0" fill="#f3af3e"/><path d="m360 384-4.6875 9.375c-7.242188 14.488281-19.945312 25.507812-35.3125 30.625 15.367188 5.117188 28.070312 16.136719 35.3125 30.625l4.6875 9.375 4.6875-9.375c7.242188-14.488281 19.945312-25.507812 35.3125-30.625-15.367188-5.117188-28.070312-16.136719-35.3125-30.625zm0 0" fill="#fbb540"/><g fill="#6fbbc6"><path d="m16 112h16v16h-16zm0 0"/><path d="m16 144h16v16h-16zm0 0"/><path d="m0 128h16v16h-16zm0 0"/><path d="m32 128h16v16h-16zm0 0"/></g><path d="m424 304h16v16h-16zm0 0" fill="#8aced8"/><path d="m424 352h16v16h-16zm0 0" fill="#8aced8"/><path d="m448 328h16v16h-16zm0 0" fill="#8aced8"/><path d="m400 328h16v16h-16zm0 0" fill="#8aced8"/></svg>