<svg height="462pt" viewBox="0 -1 462.84425 462" width="462pt" xmlns="http://www.w3.org/2000/svg"><path d="m454.839844 110.195312-18.417969 17.960938 4.347656 25.359375-22.769531-11.96875-22.78125 11.96875 4.351562-25.359375-18.421874-17.960938 25.460937-3.699218 11.390625-23.070313 11.378906 23.070313zm0 0" fill="#fedb41"/><path d="m440 410.835938c0 22.644531-18.355469 41-41 41s-41-18.355469-41-41c0-22.644532 18.355469-41 41-41s41 18.355468 41 41zm0 0" fill="#00acea"/><path d="m376.480469 215.183594c.539062 4.867187.808593 9.757812.808593 14.652344.039063 24.113281-6.628906 47.757812-19.257812 68.300781-38.453125 1.867187-86.792969-.992188-138.671875-9.160157-33.054687-5.109374-65.742187-12.339843-97.871094-21.640624-14.183593-47.386719-.394531-98.71875 35.625-132.617188 36.023438-33.902344 88.097657-44.550781 134.535157-27.515625s79.273437 58.832031 84.832031 107.980469zm-39.390625 27.089844c-.003906-15.0625-12.214844-27.269532-27.28125-27.269532-15.0625.003906-27.269532 12.21875-27.269532 27.28125.003907 15.0625 12.21875 27.273438 27.28125 27.269532 15.0625 0 27.273438-12.214844 27.269532-27.28125zm-81.339844 14.363281c.003906-6.609375-5.355469-11.96875-11.964844-11.972657-6.609375 0-11.964844 5.359376-11.964844 11.96875 0 6.609376 5.359376 11.964844 11.96875 11.960938 6.605469-.003906 11.957032-5.355469 11.960938-11.957031zm-56.460938-61.730469c.003907-8.460938-6.851562-15.320312-15.308593-15.320312-8.457031-.003907-15.316407 6.851562-15.320313 15.308593s6.851563 15.316407 15.308594 15.320313c8.460938.003906 15.320312-6.851563 15.320312-15.308594zm0 0" fill="#00efd1"/><path d="m358.03125 298.136719c-26.945312 43.90625-77.167969 67.886719-128.25 61.234375s-93.492188-42.695313-108.292969-92.035156c32.128907 9.300781 64.816407 16.53125 97.871094 21.640624 51.878906 8.167969 100.21875 11.027344 138.671875 9.160157zm0 0" fill="#00efd1"/><path d="m309.820312 215.003906c15.0625.003906 27.273438 12.21875 27.269532 27.28125s-12.214844 27.273438-27.28125 27.269532c-15.0625-.003907-27.269532-12.214844-27.269532-27.28125 0-15.0625 12.214844-27.273438 27.28125-27.269532zm0 0" fill="#00acea"/><path d="m243.789062 244.664062c6.609376.003907 11.960938 5.359376 11.960938 11.96875 0 6.605469-5.355469 11.960938-11.964844 11.960938-6.605468.003906-11.960937-5.351562-11.964844-11.957031 0-6.613281 5.359376-11.972657 11.96875-11.972657zm0 0" fill="#00acea"/><path d="m250.839844 35.195312-18.417969 17.960938 4.347656 25.359375-22.769531-11.96875-22.78125 11.96875 4.351562-25.359375-18.421874-17.960938 25.460937-3.699218 11.390625-23.070313 11.378906 23.070313zm0 0" fill="#00acea"/><path d="m183.96875 179.59375c8.457031 0 15.3125 6.855469 15.3125 15.3125 0 8.453125-6.855469 15.308594-15.3125 15.308594-8.453125 0-15.308594-6.855469-15.308594-15.308594 0-8.457031 6.855469-15.308594 15.308594-15.3125zm0 0" fill="#00acea"/><path d="m140.589844 364.414062-31.289063 30.511719 7.378907 43.078125-38.679688-20.339844-38.691406 20.339844 7.390625-43.078125-31.300781-30.511719 43.25-6.277343 19.351562-39.203125 19.339844 39.203125zm0 0" fill="#fedb41"/><path d="m56 75.546875c0 13.253906-10.746094 24-24 24s-24-10.746094-24-24c0-13.257813 10.746094-24 24-24s24 10.742187 24 24zm0 0" fill="#fedb41"/><g fill="#083863"><path d="m183.96875 218.214844c12.875 0 23.3125-10.4375 23.3125-23.308594 0-12.875-10.4375-23.3125-23.3125-23.3125-12.871094 0-23.308594 10.4375-23.308594 23.3125.015625 12.867188 10.445313 23.292969 23.308594 23.308594zm0-30.621094c4.039062 0 7.3125 3.273438 7.3125 7.3125 0 4.035156-3.273438 7.308594-7.3125 7.308594-4.035156 0-7.308594-3.273438-7.308594-7.308594.007813-4.035156 3.277344-7.304688 7.308594-7.3125zm0 0"/><path d="m309.820312 277.554688c19.480469-.003907 35.269532-15.796876 35.269532-35.277344 0-19.480469-15.792969-35.269532-35.273438-35.273438-19.480468 0-35.273437 15.789063-35.277344 35.269532.019532 19.476562 15.804688 35.261718 35.28125 35.28125zm0-54.550782c10.644532.003906 19.273438 8.636719 19.269532 19.28125-.003906 10.644532-8.632813 19.273438-19.28125 19.269532-10.644532-.003907-19.269532-8.632813-19.269532-19.28125.011719-10.640626 8.640626-19.261719 19.28125-19.269532zm0 0"/><path d="m243.789062 276.59375c11.027344 0 19.964844-8.941406 19.960938-19.96875s-8.945312-19.960938-19.96875-19.960938c-11.027344.003907-19.964844 8.945313-19.960938 19.972657.011719 11.019531 8.949219 19.953125 19.96875 19.957031zm0-23.929688c2.1875.003907 3.960938 1.777344 3.960938 3.96875 0 2.1875-1.773438 3.960938-3.964844 3.960938-2.1875.003906-3.960937-1.769531-3.964844-3.957031 0-2.195313 1.777344-3.972657 3.96875-3.972657zm0 0"/><path d="m45.207031 168.992188c-25.152343 6.25-38.988281 16.300781-41.117187 29.875-5.546875 35.152343 72.734375 63.328124 111.074218 74.929687 8.953126 26.527344 25.660157 49.753906 47.960938 66.683594 44.234375 33.378906 104.09375 37.226562 152.238281 9.785156 18.996094-10.882813 35.164063-26.078125 47.199219-44.363281 39.457031-2.308594 85.269531-10.625 89.335938-36.488282 3.910156-24.785156-33.847657-45.988281-68.101563-59.917968-8.695313-58.566406-53.625-105.148438-111.839844-115.957032-58.214843-10.808593-116.871093 16.542969-146.011719 68.085938-32.429687-.246094-60.277343 2.285156-80.738281 7.367188zm-25.3125 32.363281c1.511719-9.648438 29.136719-23.34375 98.328125-23.746094-10.019531 24.703125-12.726562 51.765625-7.796875 77.964844-68.90625-22.03125-92.117187-44.179688-90.53125-54.21875zm226.765625 151.109375c-26.675781.082031-52.640625-8.613282-73.886718-24.75-16.660157-12.648438-29.847657-29.308594-38.335938-48.429688 27.5625 7.339844 55.496094 13.214844 83.683594 17.59375 40.800781 6.425782 81.292968 9.796875 116.589844 9.796875 2.5625 0 5.089843-.023437 7.59375-.058593-23.199219 29.09375-58.433594 45.984374-95.644532 45.847656zm189.4375-85.542969c-1.382812 8.789063-21.808594 18.574219-64.132812 22.257813 8.78125-18.550782 13.335937-38.820313 13.324218-59.34375 0-.789063-.019531-1.578126-.03125-2.371094 15.800782 6.875 28.625 13.980468 37.5 20.8125 9.222657 7.109375 14.085938 13.902344 13.339844 18.644531zm-189.4375-159.714844c62.4375-.097656 114.945313 46.804688 121.867188 108.859375.503906 4.570313.757812 9.167969.761718 13.769532.019532 21.199218-5.46875 42.039062-15.929687 60.480468-38.378906 1.480469-85.289063-1.769531-132.753906-9.242187-31.246094-4.859375-62.171875-11.601563-92.609375-20.183594-9.621094-36.769531-1.65625-75.917969 21.570312-106 23.226563-30.082031 59.089844-47.695313 97.09375-47.683594zm0 0"/><path d="m148.199219 361.941406c-.941407-2.894531-3.445313-5.003906-6.460938-5.441406l-39.085937-5.679688-17.476563-35.425781c-1.347656-2.730469-4.128906-4.460937-7.175781-4.460937-3.042969 0-5.824219 1.730468-7.171875 4.460937l-17.488281 35.425781-39.089844 5.679688c-3.011719.4375-5.515625 2.546875-6.457031 5.445312-.9375 2.894532-.152344 6.074219 2.027343 8.199219l28.289063 27.574219-6.679687 38.933594c-.515626 3 .71875 6.035156 3.179687 7.824218 2.464844 1.789063 5.730469 2.027344 8.425781.609376l34.96875-18.382813 34.957032 18.382813c2.695312 1.417968 5.960937 1.179687 8.425781-.609376 2.460937-1.789062 3.695312-4.820312 3.183593-7.824218l-6.671874-38.933594 28.28125-27.574219c2.179687-2.128906 2.960937-5.308593 2.019531-8.203125zm-44.484375 27.253906c-1.882813 1.839844-2.742188 4.484376-2.300782 7.078126l4.644532 27.109374-24.339844-12.796874c-2.328125-1.226563-5.113281-1.226563-7.445312 0l-24.339844 12.800781 4.648437-27.101563c.445313-2.59375-.414062-5.242187-2.300781-7.082031l-19.691406-19.191406 27.207031-3.953125c2.605469-.375 4.859375-2.011719 6.023437-4.375l12.175782-24.664063 12.164062 24.664063c1.167969 2.359375 3.421875 4 6.027344 4.375l27.207031 3.953125zm0 0"/><path d="m390.976562 130.945312-3.640624 21.21875c-.515626 3 .71875 6.03125 3.179687 7.824219 2.464844 1.789063 5.730469 2.023438 8.425781.609375l19.058594-10.015625 19.046875 10.015625c2.695313 1.414063 5.960937 1.179688 8.425781-.609375 2.460938-1.792969 3.695313-4.824219 3.179688-7.824219l-3.632813-21.21875 15.410157-15.023437c2.179687-2.125 2.964843-5.304687 2.023437-8.199219-.941406-2.894531-3.445313-5.007812-6.460937-5.445312l-21.296876-3.097656-9.519531-19.300782c-1.347656-2.730468-4.128906-4.460937-7.171875-4.460937-3.046875 0-5.828125 1.726562-7.175781 4.457031l-9.527344 19.300781-21.300781 3.097657c-3.011719.441406-5.515625 2.550781-6.457031 5.445312-.941407 2.898438-.15625 6.074219 2.023437 8.203125zm16.785157-16.53125c2.605469-.378906 4.855469-2.015624 6.023437-4.375l4.210938-8.535156 4.207031 8.53125c1.167969 2.359375 3.421875 4 6.027344 4.378906l9.421875 1.367188-6.816406 6.644531c-1.886719 1.839844-2.746094 4.488281-2.300782 7.082031l1.609375 9.382813-8.421875-4.425781c-2.332031-1.226563-5.113281-1.226563-7.445312 0l-8.433594 4.429687 1.609375-9.386719c.445313-2.59375-.414063-5.242187-2.296875-7.078124l-6.816406-6.648438zm0 0"/><path d="m186.976562 55.945312-3.640624 21.21875c-.515626 3 .71875 6.03125 3.179687 7.824219 2.464844 1.789063 5.730469 2.023438 8.425781.609375l19.058594-10.015625 19.046875 10.015625c2.695313 1.414063 5.960937 1.179688 8.425781-.609375 2.460938-1.792969 3.695313-4.824219 3.179688-7.824219l-3.632813-21.21875 15.410157-15.023437c2.179687-2.125 2.964843-5.304687 2.023437-8.199219-.941406-2.894531-3.445313-5.007812-6.460937-5.445312l-21.296876-3.09375-9.519531-19.300782c-1.347656-2.730468-4.128906-4.460937-7.171875-4.460937-3.046875 0-5.828125 1.726563-7.175781 4.457031l-9.527344 19.300782-21.300781 3.09375c-3.011719.441406-5.515625 2.550781-6.457031 5.445312-.941407 2.898438-.15625 6.074219 2.023437 8.203125zm16.785157-16.53125c2.605469-.378906 4.855469-2.015624 6.023437-4.375l4.210938-8.535156 4.207031 8.53125c1.167969 2.359375 3.421875 4 6.027344 4.378906l9.421875 1.367188-6.816406 6.644531c-1.886719 1.839844-2.746094 4.488281-2.300782 7.082031l1.609375 9.382813-8.425781-4.425781c-2.328125-1.226563-5.113281-1.226563-7.445312 0l-8.429688 4.429687 1.609375-9.386719c.445313-2.59375-.417969-5.242187-2.300781-7.078124l-6.816406-6.648438zm0 0"/><path d="m32 107.546875c17.671875 0 32-14.328125 32-32 0-17.675781-14.328125-32-32-32s-32 14.324219-32 32c.0195312 17.664063 14.335938 31.976563 32 32zm0-48c8.835938 0 16 7.160156 16 16 0 8.835937-7.164062 16-16 16s-16-7.164063-16-16c.011719-8.832031 7.167969-15.992187 16-16zm0 0"/><path d="m399 361.835938c-27.0625 0-49 21.9375-49 49s21.9375 49 49 49 49-21.9375 49-49c-.03125-27.050782-21.949219-48.96875-49-49zm0 82c-18.226562 0-33-14.777344-33-33 0-18.226563 14.773438-33 33-33s33 14.773437 33 33c-.019531 18.214843-14.785156 32.976562-33 33zm0 0"/></g></svg>