<?xml version="1.0" encoding="iso-8859-1"?>
<!-- Generator: Adobe Illustrator 19.0.0, SVG Export Plug-In . SVG Version: 6.00 Build 0)  -->
<svg version="1.1" id="Layer_1" xmlns="http://www.w3.org/2000/svg" xmlns:xlink="http://www.w3.org/1999/xlink" x="0px" y="0px"
	 viewBox="0 0 512 512" style="enable-background:new 0 0 512 512;" xml:space="preserve">
<path style="fill:#FD5575;" d="M509.841,222.609l-287.232-33.391L256,422.957c0,0,87.708,73.628,87.708,73.617
	c72.592-26.463,129.839-84.856,154.749-158.191l-18.17-16.147l26.817-16.148C510.315,289.889,512,273.141,512,256
	C512,244.68,511.265,233.539,509.841,222.609z"/>
<path style="fill:#FB8454;" d="M491.665,155.826l-269.056,33.391L256,89.043l87.708-73.617
	C410.323,39.713,464.028,90.891,491.665,155.826z"/>
<path style="fill:#F9B233;" d="M168.292,15.427C96.062,41.758,39.026,99.701,13.92,172.521l17.559,16.696L4.897,205.913
	C1.684,222.111,0,238.859,0,256c0,11.342,0.735,22.517,2.17,33.469l0.557-0.078l17.619,66.783
	c27.626,64.935,81.33,116.113,147.946,140.41c7.302-41.828,43.787-73.628,87.708-73.628V89.043
	C212.079,89.043,175.594,57.244,168.292,15.427z"/>
<path style="fill:#FDE0AE;" d="M161.491,289.391c18.443,0,33.391,14.948,33.391,33.391s-14.948,33.391-33.391,33.391H20.346
	C11.42,335.226,5.22,312.843,2.17,289.469l0.557-0.078H161.491z"/>
<path style="fill:#FAC15C;" d="M509.841,222.609H256l-24.587-33.391L256,155.826h235.665
	C500.591,176.796,506.791,199.201,509.841,222.609z"/>
<g>
	<path style="fill:#FDE0AE;" d="M256,155.826v66.783h-35.718c-18.443,0-33.391-14.948-33.391-33.391s14.948-33.391,33.391-33.391
		H256z"/>
	<path style="fill:#FDE0AE;" d="M343.708,496.573C316.349,506.557,286.809,512,256,512l-22.261-44.522L256,422.957
		C299.921,422.957,336.406,454.756,343.708,496.573z"/>
	<path style="fill:#FDE0AE;" d="M343.708,15.416C336.406,57.244,299.921,89.043,256,89.043l-22.261-44.522L256,0
		C286.809,0,316.349,5.443,343.708,15.416z"/>
</g>
<path style="fill:#FAC15C;" d="M507.099,306.087h-128.56v33.391h119.538C501.808,328.658,504.833,317.509,507.099,306.087z"/>
<rect x="289.391" y="306.087" style="fill:#FDE0AE;" width="55.752" height="33.391"/>
<g>
	<path style="fill:#FFFFFF;" d="M4.901,205.913h131.898v-33.391H13.923C10.192,183.342,7.167,194.491,4.901,205.913z"/>
	<path style="fill:#FFFFFF;" d="M256,422.957V512c-30.809,0-60.349-5.443-87.708-15.416
		C175.594,454.756,212.079,422.957,256,422.957z"/>
	<path style="fill:#FFFFFF;" d="M256,0v89.043c-43.921,0-80.406-31.8-87.708-73.617C195.651,5.443,225.191,0,256,0z"/>
</g>
<g>
</g>
<g>
</g>
<g>
</g>
<g>
</g>
<g>
</g>
<g>
</g>
<g>
</g>
<g>
</g>
<g>
</g>
<g>
</g>
<g>
</g>
<g>
</g>
<g>
</g>
<g>
</g>
<g>
</g>
</svg>
