<svg height="480pt" viewBox="0 -72 480.12404 480" width="480pt" xmlns="http://www.w3.org/2000/svg"><path d="m147.582031 298.542969c48.789063 34.632812 112.832031 39.136719 165.984375 11.667969 53.15625-27.472657 86.527344-82.316407 86.496094-142.148438 0-5.039062-.242188-9.921875-.71875-14.800781-36.941406 31.828125-76.890625 59.988281-119.28125 84.082031-42.0625 24.667969-86.433594 45.164062-132.480469 61.199219zm0 0" fill="#6e76e5"/><path d="m147.582031 298.542969c46.046875-16.035157 90.417969-36.53125 132.480469-61.199219 42.390625-24.09375 82.339844-52.253906 119.28125-84.082031 54.71875-48.160157 83.277344-93.039063 69.359375-117.199219-13.921875-24.160156-67.042969-21.839844-136.160156 1.519531 7.769531 5.429688 15.003906 11.589844 21.597656 18.398438 32.882813-9.199219 55.921875-9.519531 62.082031 1.121093 5.917969 10.320313-4.878906 29.039063-27.519531 51.839844-38.867187 36.417969-82.074219 67.90625-128.640625 93.761719-45.675781 27.386719-94.550781 49.042969-145.519531 64.480469-31.039063 8.320312-52.722657 8.238281-58.640625-2.082032-6.160156-10.640624 5.679687-30.398437 30-54.238281-2.566406-9.15625-4.28125-18.53125-5.121094-28-54.71875 48.160157-83.277344 93.039063-69.359375 117.199219 13.921875 24.160156 67.039063 21.839844 136.160156-1.519531zm0 0" fill="#d5b4eb"/><path d="m114.542969 267.183594c50.96875-15.4375 99.84375-37.09375 145.519531-64.480469 46.566406-25.855469 89.773438-57.34375 128.640625-93.761719-7.816406-19.808594-19.574219-37.828125-34.5625-52.960937-6.59375-6.808594-13.828125-12.96875-21.597656-18.398438-48.789063-34.636719-112.832031-39.136719-165.984375-11.667969-53.15625 27.472657-86.527344 82.316407-86.496094 142.148438 0 5.039062.238281 9.917969.71875 14.800781.839844 9.46875 2.554688 18.84375 5.121094 28 5.636718 20.519531 15.378906 39.679688 28.640625 56.320313zm0 0" fill="#6e76e5"/><path d="m475.628906 32.0625c-15.453125-26.824219-67.109375-27.9375-141.902344-3.273438-27.621093-18.78125-60.265624-28.79296825-93.664062-28.726562-92.742188.101562-167.898438 75.257812-168 168 0 3.871094.28125 7.625.550781 11.398438-58.71875 52.441406-83.582031 97.753906-68.121093 124.601562 8.066406 14 25.976562 21.007812 51.898437 21.007812 30.730469-1.28125 61.085937-7.261718 90.007813-17.734374 27.621093 18.78125 60.261718 28.792968 93.664062 28.726562 92.742188-.101562 167.898438-75.257812 168-168 0-3.855469-.28125-7.617188-.550781-11.398438 58.71875-52.441406 83.582031-97.753906 68.117187-124.601562zm-106.398437 28.367188c3.039062-.671876 5.808593-1.199219 8.449219-1.648438l1.460937-.246094c2.464844-.402344 4.730469-.6875 6.847656-.914062l1.425781-.132813c2.03125-.1875 3.929688-.296875 5.640626-.339843h.984374c1.664063 0 3.199219 0 4.582032.136718h.328125c1.230469.105469 2.453125.28125 3.664062.519532l.601563.113281c.894531.199219 1.773437.46875 2.632812.800781.160156.054688.308594.121094.453125.183594.617188.253906 1.210938.570312 1.761719.945312.070312.050782.136719.105469.199219.167969.398437.292969.742187.65625 1.015625 1.070313.234375.449218.386718.9375.449218 1.441406l.039063.222656c.074219.660156.074219 1.324219 0 1.984375l-.054687.40625c-.128907.894531-.328126 1.773437-.59375 2.632813-.039063.144531-.101563.296874-.152344.449218-.375 1.175782-.824219 2.328125-1.34375 3.449219v.070313c-.582032 1.265624-1.328125 2.65625-2.183594 4.136718l-.28125.503906c-.863281 1.464844-1.894531 3.046876-3.054688 4.726563l-.566406.800781c-1.199218 1.695313-2.5625 3.503906-4.089844 5.425782l-.6875.847656c-1.640624 2.023437-3.421874 4.144531-5.457031 6.398437l-.0625.074219c-.425781-.882812-.921875-1.730469-1.359375-2.609375-.441406-.878906-.960937-1.855469-1.449218-2.777344-2.289063-4.328125-4.710938-8.574219-7.375-12.671875-.214844-.328125-.449219-.632812-.664063-.953125-2.550781-3.871093-5.304687-7.605469-8.191406-11.261719-.609375-.800781-1.210938-1.601562-1.839844-2.335937-.425781-.519531-.800781-1.074219-1.257813-1.601563zm-129.167969-44.367188c31.515625-.097656 62.261719 9.722656 87.886719 28.070312 7.378906 5.160157 14.246093 11.011719 20.503906 17.480469 3.441406 3.472657 6.65625 7.105469 9.714844 10.847657 1.023437 1.25 1.917969 2.585937 2.894531 3.867187 1.945312 2.550781 3.886719 5.109375 5.664062 7.773437 1.054688 1.601563 1.992188 3.25 2.984376 4.878907 1.511718 2.480469 3.015624 4.960937 4.382812 7.53125.953125 1.78125 1.800781 3.628906 2.679688 5.460937.800781 1.671875 1.601562 3.378906 2.304687 5.089844-1.304687 1.253906-2.625 2.519531-4 3.800781-1.816406 1.695313-3.617187 3.390625-5.542969 5.117188-2.191406 1.960937-4.519531 3.953125-6.847656 5.945312-2.007812 1.730469-4 3.449219-6.097656 5.191407-2.472656 2.042968-5.078125 4.105468-7.671875 6.167968-2.183594 1.746094-4.328125 3.472656-6.601563 5.226563-2.734375 2.109375-5.597656 4.230469-8.445312 6.351562-2.320313 1.726563-4.585938 3.445313-6.96875 5.175781-3.039063 2.207032-6.214844 4.40625-9.359375 6.617188-2.402344 1.652344-4.679688 3.308594-7.105469 4.964844-3.414062 2.335937-6.96875 4.65625-10.488281 6.984375-2.304688 1.519531-4.542969 3.050781-6.886719 4.5625-4 2.558593-8.054688 5.09375-12.128906 7.628906-2.03125 1.265625-4 2.539063-6.0625 3.792969-6.167969 3.777344-12.4375 7.511718-18.816406 11.199218-6.378907 3.691407-12.734376 7.25-19.066407 10.671876-2.199219 1.203124-4.382812 2.320312-6.574219 3.488281-4.136718 2.210937-8.28125 4.433593-12.382812 6.539062-2.554688 1.308594-5.074219 2.527344-7.617188 3.789063-3.703124 1.855468-7.417968 3.730468-11.078124 5.488281-2.664063 1.28125-5.273438 2.457031-7.914063 3.6875-3.464844 1.601563-6.953125 3.25-10.398437 4.800781-2.6875 1.191406-5.304688 2.296875-7.945313 3.433594-3.28125 1.414062-6.558594 2.839844-9.769531 4.160156-2.621094 1.070313-5.167969 2.054688-7.742188 3.0625-3.121094 1.230469-6.25 2.464844-9.289062 3.59375-2.511719.933594-4.941406 1.773438-7.398438 2.636719-2.953125 1.042969-5.898437 2.074219-8.746094 3.007813-2.398437.800781-4.710937 1.480468-7.039062 2.195312-1.832031.558594-3.632812 1.078125-5.40625 1.597656-1.128906-1.519531-2.242188-3.046875-3.296875-4.597656-1.152344-1.679688-2.328125-3.34375-3.410156-5.058594-1.542969-2.460937-2.933594-5-4.328125-7.535156-.925782-1.695312-1.910156-3.359375-2.773438-5.085938-1.375-2.777343-2.585937-5.601562-3.785156-8.496093-.664062-1.601563-1.414062-3.113281-2.023438-4.714844-1.601562-4.175781-2.996093-8.441406-4.191406-12.796875-.097656-.328125-.226562-.640625-.320312-.96875-2.429688-8.699219-4.054688-17.605469-4.855469-26.601562-.417969-4.6875-.640625-9.28125-.640625-14.023438.09375-83.910156 68.089844-151.90625 152-152zm-139.199219 246.199219c-2.96875.625-5.695312 1.113281-8.265625 1.519531l-1.078125.167969c-2.402343.367187-4.707031.632812-6.785156.800781l-.960937.074219c-2.046876.167969-3.960938.253906-5.671876.261719h-.511718c-1.742188 0-3.34375-.070313-4.742188-.207032h-.050781c-1.238281-.117187-2.46875-.308594-3.6875-.578125l-.429687-.085937c-.875-.203125-1.734376-.472656-2.570313-.800782l-.449219-.152343c-.597656-.257813-1.171875-.578125-1.703125-.960938l-.175781-.152343c-.386719-.289063-.722656-.644532-.984375-1.054688-.226563-.445312-.371094-.925781-.421875-1.421875v-.242187c-.054688-.675782-.039062-1.351563.054688-2.023438l.0625-.441406c.152343-.917969.371093-1.824219.648437-2.710938l.175781-.488281c.410156-1.21875.890625-2.414063 1.441406-3.574219v-.089844c.609376-1.277343 1.390626-2.703124 2.273438-4.199218l.429688-.753906c.898437-1.476563 1.960937-3.085938 3.152343-4.796876.25-.359374.511719-.722656.800781-1.089843 1.257813-1.734375 2.648438-3.566407 4.230469-5.511719l.9375-1.121094c1.695313-2.054687 3.535157-4.191406 5.601563-6.480468l.132812-.140626c.226563.605469.488282 1.191407.722656 1.796876.328126.875.695313 1.730468 1.039063 2.59375 1.726563 4.335937 3.609375 8.609374 5.695313 12.800781.175781.34375.320312.695312.496093 1.039062 2.234375 4.367188 4.71875 8.609375 7.34375 12.800781.554688.871094 1.105469 1.75 1.671875 2.617188.570313.863281 1.074219 1.734375 1.648438 2.582031zm139.199219 57.800781c-26.050781.074219-51.671875-6.621094-74.351562-19.433594l.285156-.109375.59375-.226562c4.875-1.804688 9.792968-3.703125 14.753906-5.6875 1.597656-.648438 3.261719-1.34375 4.894531-2.015625 3.566407-1.457032 7.136719-2.925782 10.742188-4.480469 1.960937-.800781 3.945312-1.71875 5.921875-2.582031 3.304687-1.457032 6.625-2.929688 9.953125-4.457032 2.109375-.960937 4.222656-1.945312 6.34375-2.9375 3.261719-1.527343 6.53125-3.085937 9.796875-4.671874 2.144531-1.039063 4.28125-2.070313 6.402344-3.132813 3.34375-1.65625 6.6875-3.363281 10.039062-5.074219 2.066406-1.054687 4.121094-2.105468 6.191406-3.199218 3.648438-1.914063 7.296875-3.871094 10.953125-5.847657 1.753907-.953125 3.503907-1.871093 5.265625-2.839843 5.402344-2.972657 10.796875-6.007813 16.191406-9.113282 5.390626-3.105468 10.691407-6.238281 15.902344-9.40625 1.71875-1.042968 3.402344-2.097656 5.105469-3.144531 3.511719-2.160156 7.023437-4.320313 10.480469-6.511719 1.984375-1.265625 3.933594-2.527344 5.894531-3.800781 3.128906-2.015625 6.234375-4.046875 9.3125-6.089844 2.015625-1.34375 4.019531-2.675781 6.015625-4 2.964844-2.015625 5.898438-4.039062 8.800781-6.070312 1.960938-1.367188 3.902344-2.726563 5.839844-4.105469 2.917969-2.078125 5.792969-4.167969 8.648437-6.253906 1.816407-1.335938 3.640626-2.664063 5.429688-4 3-2.242188 5.9375-4.496094 8.855469-6.753906 1.546875-1.191407 3.113281-2.398438 4.632812-3.566407 3.722657-2.929687 7.34375-5.855469 10.921875-8.800781.640625-.527344 1.3125-1.054688 1.949219-1.601562l.234375-.132813c-1.164062 83.140625-68.847656 149.957031-152 150.046875zm154-172.800781c-36.550781 31.472656-76.070312 59.320312-118 83.152343-5.601562 3.230469-11.199219 6.386719-16.800781 9.464844-11.199219 6.144532-22.398438 12-33.535157 17.429688-.273437.128906-.542968.25-.800781.386718-25.878906 12.804688-52.5625 23.917969-79.878906 33.269532-65.921875 22.273437-115.648437 24.296875-126.6875 5.097656-10.242187-17.777344 11.796875-55.199219 56.566406-97.097656.601563 3.203125 1.289063 6.402344 2.054688 9.480468-1.230469 1.25-2.246094 2.402344-3.40625 3.640626-1.496094 1.601562-3.015625 3.152343-4.382813 4.679687-1.554687 1.730469-2.929687 3.394531-4.328125 5.066406-1.21875 1.453125-2.472656 2.925781-3.570312 4.335938-1.269531 1.597656-2.359375 3.199219-3.464844 4.796875-.941406 1.335937-1.941406 2.699218-2.765625 4-.992188 1.601562-1.777344 3.035156-2.601562 4.53125-.664063 1.199218-1.414063 2.398437-1.96875 3.605468-.703126 1.480469-1.175782 2.863282-1.703126 4.273438-.398437 1.070312-.894531 2.183594-1.191406 3.199219-.355468 1.347656-.621094 2.714843-.800781 4.097656-.144531.910156-.40625 1.871094-.453125 2.742187-.035156 1.367188.058594 2.730469.277344 4.082032.023437.699218.082031 1.398437.175781 2.09375.792969 3.710937 2.695313 7.09375 5.457031 9.695312.199219.210938.390625.425782.609375.617188 1.332031 1.1875 2.804688 2.210937 4.382813 3.046875.3125.167969.632812.320312.960937.480469 1.8125.886718 3.707031 1.589843 5.65625 2.105468.238281.0625.511719.109375.75.167969 2.207031.527344 4.453125.902344 6.710938 1.109375l.800781.089844c1.785156.144531 3.648438.230468 5.601562.230468.609376 0 1.3125-.070312 1.933594-.085937 1.113282 0 2.28125-.089844 3.449219-.160156 2.007813-.121094 4.105469-.304688 6.273437-.558594 1.253907-.144531 2.511719-.289063 3.824219-.480469 2.398438-.351562 4.925781-.800781 7.503907-1.296875 1.214843-.234375 2.398437-.425781 3.640624-.695312 3.832032-.800781 7.816407-1.753907 12-2.875l.207032-.054688c51.652344-15.632812 101.191406-37.554687 147.503906-65.261719 13.304688-7.683593 26.246094-15.601562 38.648438-23.632812 8.183593-5.304688 16-10.65625 23.679687-16 24.195313-16.503906 46.945313-35.035156 68-55.394531 27.3125-27.503907 36.71875-47.597657 28.757813-61.476563-.996094-1.726562-2.257813-3.285156-3.734376-4.625-.441406-.410156-1.039062-.695312-1.527343-1.066406-1.128907-.914062-2.339844-1.71875-3.625-2.398438-.6875-.351562-1.542969-.566406-2.289063-.863281-1.390625-.601562-2.824218-1.105469-4.285156-1.503906-.90625-.226563-1.953125-.320313-2.921875-.496094-1.597656-.289062-3.246094-.59375-5.070313-.738281-1.105468-.085938-2.351562-.054688-3.527343-.078125-1.898438-.046875-3.777344-.113281-5.851563 0-1.328125.0625-2.78125.230469-4.183594.351563-2.136718.183593-4.261718.367187-6.566406.6875-1.601562.226562-3.265625.542968-4.914062.800781-2.335938.398437-4.679688.800781-7.199219 1.335937-1.863281.398438-3.839844.894532-5.792969 1.359375-1.734375.417969-3.34375.738281-5.148437 1.207031-2.289063-2.222656-4.65625-4.386718-7.105469-6.488281 58.734375-17.933593 102.144531-18.34375 112.359375-.582031 11.097656 19.199219-15.519531 61.265625-67.703125 107.199219zm0 0" fill="#231f20"/></svg>