<?xml version="1.0" encoding="iso-8859-1"?>
<!-- Generator: Adobe Illustrator 19.0.0, SVG Export Plug-In . SVG Version: 6.00 Build 0)  -->
<svg version="1.1" id="Capa_1" xmlns="http://www.w3.org/2000/svg" xmlns:xlink="http://www.w3.org/1999/xlink" x="0px" y="0px"
	 viewBox="0 0 512 512" style="enable-background:new 0 0 512 512;" xml:space="preserve">
<path style="fill:#00ABE9;" d="M506,200.4l-68.7,234.9c-7.5,7.2-15.601,14.099-23.701,20.7c-43.499,33.6-98.5,56-157.599,56
	c-60,0-116.201-23-159.699-57.8L2.999,217.8c3.9-25.501,11.1-49.501,21.901-71.7L136.8,29.399C172.2,10.8,213.401,0,256,0
	c38.401,0,75.7,8.699,108.401,24l131.4,142.2c0.298,0.601,0.599,1.5,0.599,2.1C500.3,178.799,503.599,189.6,506,200.4z"/>
<path style="fill:#0095FF;" d="M506,200.4l-68.7,234.9c-7.5,7.2-15.601,14.099-23.701,20.7c-43.499,33.6-98.5,56-157.599,56V0
	c38.401,0,75.7,8.699,108.401,24l131.4,142.2c0.298,0.601,0.599,1.5,0.599,2.1C500.3,178.799,503.599,189.6,506,200.4z"/>
<path style="fill:#00CCB2;" d="M393.538,209.487c-13.799-6.899-26.836-13.418-38.291-13.418c-38.789,0-45,3.56-45,15
	c0,27.466-15.22,37.236-24.316,43.081c-7.515,4.834-7.808,5.01-5.991,13.901c1.919,9.331,5.713,21.372,12.905,25.767
	c8.071,4.937,21.841,1.099,35.215-2.622c9.507-2.637,18.472-5.127,27.188-5.127c35.859,0,44.59,37.383,48.311,53.335
	c17.355,74.352,22.586,91.989,33.739,95.751C483.428,388.987,512,325.269,512,255c0-18.737-2.166-36.958-6.021-54.556
	c-16.73,13.733-38.932,25.626-60.732,25.626C426.702,226.069,409.842,217.632,393.538,209.487z"/>
<g>
	<path style="fill:#00DDC1;" d="M495.801,166.199h-80.7c-21,0-32.1-11.4-40.501-19.499c-7.2-7.5-10.8-10.501-19.499-10.501
		c-8.401,0-12.001,3.001-19.2,10.501c-8.101,8.099-19.501,19.499-40.8,19.499c-13.5,0-29.2,0-39.101-6.301
		c-4.2-2.399-7.5-5.999-9.6-11.1c-4.2-10.199-1.5-21.599,9.6-37.2c6.301-8.699,16.601-19.2,28.599-31.199
		c8.701-8.401,23.401-14.101,37.8-19.501c7.5-2.999,18.9-7.2,21.601-9.6c7.5-9.598,13.499-17.699,18.3-24.899
		c0.899-0.901,1.199-1.501,2.1-2.401c9,4.2,17.999,9,26.4,14.399C429.2,62.1,461,96,482.3,136.199
		C487.4,145.8,491.901,155.7,495.801,166.199z"/>
	<path style="fill:#00DDC1;" d="M141.665,39.36c-1.707-3.408-3.382-6.766-4.946-10.067c-8.912,4.689-17.531,9.833-25.783,15.505
		C86.228,61.787,64.77,83.084,47.377,107.49c-8.621,12.098-16.13,24.983-22.564,38.514c17.465-9.531,34.46-9.884,53.703-9.95
		l4.731,0.015c29.868,0,75,0,75-45C158.247,72.524,149.81,55.664,141.665,39.36z"/>
</g>
<path style="fill:#00CCB2;" d="M495.801,166.199h-80.7c-21,0-32.1-11.4-40.501-19.499c-7.2-7.5-10.8-10.501-19.499-10.501
	c-8.401,0-12.001,3.001-19.2,10.501c-8.101,8.099-19.501,19.499-40.8,19.499c-13.5,0-29.2,0-39.101-6.301v-48.3
	c6.301-8.699,16.601-19.2,28.599-31.199c8.701-8.401,23.401-14.101,37.8-19.501c7.5-2.999,18.9-7.2,21.601-9.6
	c7.5-9.598,13.499-17.699,18.3-24.899c0.899-0.901,1.199-1.501,2.1-2.401c9,4.2,17.999,9,26.4,14.399
	C429.2,62.1,461,96,482.3,136.199C487.4,145.8,491.901,155.7,495.801,166.199z"/>
<path style="fill:#00DDC1;" d="M188.247,301.069c0-29.561-23.73-34.761-41.06-38.555c-17.886-3.911-36.372-7.954-51.606-29.985
	c-2.051-2.974-3.867-6.021-5.625-8.95c-6.943-11.616-16.45-27.51-36.709-27.51c-18.926,0-29.604,7.72-39.023,14.546
	c-3.501,2.532-7.17,4.907-11.186,7.117c-1.622,11.006-2.688,22.181-2.851,33.594C0.168,252.563,0,253.76,0,255
	c0,69.393,27.938,132.325,73.061,178.348c7.297,7.441,15.073,14.383,23.229,20.894l2.529-1.796
	c-3.604-5.083,14.634-23.877,26.704-36.313C151.992,388.857,188.247,351.504,188.247,301.069z"/>
<g>
</g>
<g>
</g>
<g>
</g>
<g>
</g>
<g>
</g>
<g>
</g>
<g>
</g>
<g>
</g>
<g>
</g>
<g>
</g>
<g>
</g>
<g>
</g>
<g>
</g>
<g>
</g>
<g>
</g>
</svg>
