<svg height="512" viewBox="0 0 64 64" width="512" xmlns="http://www.w3.org/2000/svg"><path d="m42 44h2v15h-2z" fill="#448aa5"/><path d="m45.089 44h-4l-5-5a6.454 6.454 0 0 1 -2-6l2-11h14l2 11a6.454 6.454 0 0 1 -2 6z" fill="#aad5e8"/><path d="m16 3h8v6h-8z" fill="#f9bb4b"/><path d="m24 20v-11h-8v11l-6 7v34h20v-34z" fill="#db527d"/><path d="m10 33h20v18h-20z" fill="#f98c96"/><g fill="#efbfd0"><path d="m10 56h12v2h-12z"/><path d="m24 56h2v2h-2z"/><path d="m19 26h11v2h-11z"/><path d="m10 26h5v2h-5z"/></g><circle cx="47" cy="16" fill="#fcf05a" r="2"/><circle cx="40" cy="12" fill="#fcf05a" r="2"/><circle cx="20" cy="42" fill="#d9176c" r="5"/><path d="m19 3h2v3h-2z" fill="#e97424"/><path d="m51.089 61h-16l8-4z" fill="#aad5e8"/><path d="m52.089 33-.182-1h-17.636l-.182 1a6.454 6.454 0 0 0 2 6l5 5h4l5-5a6.454 6.454 0 0 0 2-6z" fill="#db527d"/><path d="m46.089 35h2v2h-2z" fill="#d9176c"/><path d="m42.089 37h2v2h-2z" fill="#d9176c"/></svg>