<svg id="Layer_1" enable-background="new 0 0 256 256" height="512" viewBox="0 0 256 256" width="512" xmlns="http://www.w3.org/2000/svg"><circle cx="61.452" cy="32.404" fill="#fcc24c" r="28.404"/><path d="m42.186 32.404c0-14.131 10.321-25.847 23.835-28.033-1.488-.241-3.013-.371-4.569-.371-15.687 0-28.404 12.717-28.404 28.404s12.717 28.404 28.404 28.404c1.556 0 3.081-.13 4.569-.371-13.514-2.186-23.835-13.902-23.835-28.033z" fill="#fce06a"/><path d="m61.452 62.808c-16.765 0-30.404-13.64-30.404-30.404 0-16.765 13.639-30.404 30.404-30.404s30.404 13.639 30.404 30.403c-.001 16.765-13.64 30.405-30.404 30.405zm0-56.808c-14.559 0-26.404 11.845-26.404 26.403 0 14.56 11.845 26.404 26.404 26.404s26.404-11.845 26.404-26.404c-.001-14.558-11.845-26.403-26.404-26.403z" fill="#690589"/><path d="m181.436 77.788 41.516-45.384h-83.033-83.033l41.517 45.384 35.682 39.006v102.675l-11.962 13.077-17.796 19.454h35.592 35.593l-17.797-19.454-11.962-13.077v-102.675z" fill="#f4efed"/><path d="m181.436 77.788 41.516-45.384h-13.394l-41.517 45.384-34.819 38.062.863.944v102.675l-.863.944 11.099 12.133 17.796 19.454h13.395l-17.797-19.454-11.962-13.077v-102.675z" fill="#d6d1cf"/><path d="m125.747 240.623c-.482 0-.966-.173-1.35-.524-.815-.745-.871-2.011-.126-2.825l7.593-8.3c.746-.815 2.011-.872 2.826-.126.815.745.871 2.011.125 2.825l-7.593 8.3c-.394.431-.934.65-1.475.65z" fill="#690589"/><path d="m139.919 50.168h54.529l-27.264 29.805-27.265 29.804-27.265-29.804-27.264-29.805z" fill="#ff4397"/><g fill="#690589"><path d="m139.919 111.777c-.561 0-1.097-.236-1.475-.65l-54.53-59.608c-.535-.585-.674-1.431-.354-2.156.319-.726 1.037-1.193 1.83-1.193h109.059c.793 0 1.511.468 1.83 1.193.32.726.181 1.571-.355 2.156l-54.53 59.608c-.378.414-.914.65-1.475.65zm-49.989-59.608 49.989 54.646 49.989-54.646z"/><path d="m175.512 254h-71.185c-.793 0-1.511-.468-1.83-1.193-.32-.725-.181-1.571.354-2.156l29.234-31.958v-101.123l-76.674-83.817c-.535-.585-.674-1.431-.354-2.156.319-.726 1.037-1.193 1.83-1.193h166.066c.793 0 1.511.468 1.83 1.193.32.726.181 1.571-.355 2.156l-76.674 83.817v101.123l29.234 31.957c.535.585.674 1.431.355 2.156-.321.726-1.038 1.194-1.831 1.194zm-66.645-4h62.105l-26.694-29.181c-.337-.368-.524-.85-.524-1.35v-102.675c0-.5.187-.981.524-1.35l74.134-81.041h-156.986l74.135 81.041c.337.368.524.85.524 1.35v102.675c0 .5-.187.981-.524 1.35zm72.568-172.212h.01z"/><path d="m148.29 76.799c-.323 0-.651-.078-.955-.243-.97-.528-1.328-1.743-.8-2.713l38.551-70.799c.528-.971 1.744-1.328 2.713-.801.97.528 1.328 1.743.8 2.713l-38.551 70.799c-.363.667-1.05 1.044-1.758 1.044z"/></g></svg>