<svg id="Capa_1" enable-background="new 0 0 511.944 511.944" height="512" viewBox="0 0 511.944 511.944" width="512" xmlns="http://www.w3.org/2000/svg"><path d="m302.105 167.987c-1.272 0-2.562-.324-3.743-1.006-3.587-2.071-4.816-6.658-2.745-10.245l42.868-74.25c2.07-3.587 6.656-4.817 10.245-2.745 3.587 2.071 4.816 6.658 2.745 10.245l-42.868 74.25c-1.388 2.405-3.91 3.751-6.502 3.751z" fill="#dfeaee"/><path d="m361.79 201.556c-12.268-6.062-23.075-12.863-47.325-12.863-43.741 0-43.741 22.131-87.482 22.131-23.945 0-34.781-6.632-46.861-12.636-1.479 16.404-4.444 32.666-9.017 48.565-2.653 9.226-4.059 18.981-4.024 29.069.196 55.366 46.813 102.494 102.174 103.261 57.916.803 105.116-45.904 105.116-103.635 0-9.772-1.353-19.228-3.881-28.191-4.228-14.991-7.099-30.282-8.7-45.701z" fill="#e7a2cb"/><path d="m370.49 247.256c-4.228-14.99-7.1-30.282-8.7-45.7-10.792-5.333-20.454-11.237-39.129-12.581 1.688 12.904 4.281 25.699 7.83 38.281 2.528 8.963 3.881 18.419 3.881 28.191 0 57.731-47.2 104.438-105.116 103.635-7.769-.108-15.365-1.129-22.686-2.957 17.433 14.019 39.278 22.632 62.686 22.957 57.916.803 105.116-45.904 105.116-103.635-.001-9.771-1.353-19.227-3.882-28.191z" fill="#e278b1"/><path d="m342.605 508.509-49.746-38.216c-2.493-1.916-3.955-4.881-3.955-8.026l-2.006-84.435c-5.739.899-11.632 1.335-17.643 1.252-4.981-.069-9.89-.519-14.701-1.311l2.006 84.495c0 3.144-1.461 6.11-3.955 8.026l-49.745 38.216c-1.451 1.115-.663 3.435 1.167 3.435h137.411c1.83-.001 2.618-2.321 1.167-3.436z" fill="#b1e4f9"/><path d="m312.733 304.943-30.542-30.543c-.991-.991-.991-2.599 0-3.59l30.542-30.543c.991-.991 2.599-.991 3.59 0l30.543 30.543c.991.991.991 2.599 0 3.59l-30.543 30.542c-.991.992-2.598.992-3.59.001z" fill="#ecbeda"/><path d="m244.025 343.181-30.542-30.543c-.991-.991-.991-2.599 0-3.59l30.542-30.542c.991-.991 2.599-.991 3.59 0l30.542 30.542c.991.991.991 2.599 0 3.59l-30.542 30.543c-.991.991-2.598.991-3.59 0z" fill="#ecbeda"/><path d="m314.465 188.693c24.25 0 35.057 6.802 47.325 12.863-2.327-22.41-1.945-45.091 1.063-67.527l3.974-29.647c.281-2.098-1.35-3.963-3.467-3.963h-185.269c-2.117 0-3.749 1.865-3.467 3.963l3.974 29.641c2.856 21.303 3.445 42.853 1.523 64.164 12.08 6.003 22.916 12.636 46.861 12.636 43.742 0 43.742-22.13 87.483-22.13z" fill="#d3effb"/><path d="m328.131 100.419-32.514 56.317c-2.071 3.587-.842 8.174 2.745 10.245 1.182.682 2.471 1.006 3.743 1.006 2.592 0 5.113-1.346 6.502-3.751l36.844-63.817z" fill="#b1e4f9"/><path d="m363.36 100.419h-38.683l-1.824 13.61c-3.008 22.436-3.389 45.117-1.063 67.527.257 2.477.547 4.95.871 7.419 18.676 1.344 28.337 7.248 39.129 12.581-2.327-22.41-1.945-45.091 1.063-67.527l3.974-29.647c.281-2.098-1.35-3.963-3.467-3.963z" fill="#b1e4f9"/><path d="m346.866 274.4c.991-.991.991-2.599 0-3.59l-12.533-12.533c-.343 12.789-3.002 25.001-7.574 36.23z" fill="#e7a2cb"/><path d="m210.182 15.99c-2.528-9.432-11.074-15.99-20.838-15.99h-97.173c-.862 0-1.561.699-1.561 1.561v26.195c0 .862.699 1.561 1.561 1.561h86.409c2.168 0 4.066 1.456 4.628 3.551l18.1 67.551h31.496z" fill="#dfeaee"/><path d="m243.56 249.223 24.945-6.684c1.226-.329 1.954-1.589 1.626-2.816l-9.428-35.185c-7.64 3.24-16.618 5.802-29.829 6.224l9.87 36.835c.329 1.227 1.59 1.954 2.816 1.626z" fill="#e278b1"/><path d="m201.308 100.419 29.567 110.344c13.211-.421 22.189-2.984 29.829-6.224l-27.899-104.12z" fill="#b1e4f9"/><path d="m345.452 100.419h-17.32l-4.499 7.792-.78 5.818c-1.325 9.886-2.14 19.82-2.439 29.757z" fill="#75cef9"/><path d="m412.672 128.344-138.137-79.753c-4.85-2.8-3.254-10.174 2.32-10.717l97.589-9.522c2.451-.239 4.783 1.107 5.802 3.35l40.548 89.275c2.316 5.098-3.272 10.167-8.122 7.367z" fill="#e7a2cb"/><path d="m377.405 28.85-57.897 45.705 48.194 27.825 10.633-72.993c-.294-.208-.605-.387-.93-.537z" fill="#ecbe6b"/></svg>