<?xml version="1.0" encoding="iso-8859-1"?>
<!-- Generator: Adobe Illustrator 18.0.0, SVG Export Plug-In . SVG Version: 6.00 Build 0)  -->
<!DOCTYPE svg PUBLIC "-//W3C//DTD SVG 1.1//EN" "http://www.w3.org/Graphics/SVG/1.1/DTD/svg11.dtd">
<svg version="1.1" id="Capa_1" xmlns="http://www.w3.org/2000/svg" xmlns:xlink="http://www.w3.org/1999/xlink" x="0px" y="0px"
	 viewBox="0 0 455.38 455.38" style="enable-background:new 0 0 455.38 455.38;" xml:space="preserve">
<g>
	<path style="fill:#F57547;" d="M429,27.94c2.05,2.68,2.75,7.85,1.7,11.16c-3.12,9.81-6.76,19.7-20.09,19.84
		c-2.47,0.02-5.12,2.53-7.31,4.35c-3.34,2.76-6.34,5.92-9.91,9.31c-8.14-4.02-15.94-7.87-24.81-12.25
		c6.63-7.58,12.58-14.37,18.54-21.18c-0.34-1.28-0.35-2.48-0.92-3.28c-6.13-8.4-6.57-11.6-2.2-17.55
		c4.71-6.39,13.81-10.08,20.3-8.22c5.18,1.48,7.08,5.47,6.27,12.17c-0.28,2.24,0.34,4.58,0.55,6.88c2.01-0.4,4.37-0.26,5.98-1.29
		C421.27,25.22,426,24.04,429,27.94z"/>
	<path style="fill:#FF96BD;" d="M187.3,228.93c25.07,8.99,47.38,47.76,42.51,75.87c-1.21,7-3.71,10.36-12.59,16.01
		c0.76-9.16,1.49-17.93,2.23-26.71c-0.84-0.1-1.69-0.2-2.53-0.3c-1.48,8.55-4.16,17.11-4.11,25.66c0.05,9.89-4.63,15.56-13.6,21.33
		c1.87-16.65,7.33-31.24,6.75-46.49c-0.85-0.13-1.69-0.26-2.54-0.39c-2.73,16.14-5.95,32.22-7.91,48.45
		c-0.72,5.93-4.34,7.77-9.27,12.35c1.67-13.04,3.07-24.04,4.48-35.04c-0.72-0.12-1.44-0.24-2.15-0.37
		c-2.34,11.87-5.04,23.69-6.85,35.64c-0.83,5.53-2.74,9.66-8.97,13.37c0.68-14.52,1.32-28.06,1.96-41.61
		c-0.75-0.12-1.51-0.24-2.27-0.35c-0.82,6.31-1.64,12.61-2.78,21.39c-7.09-19.63-16.83-35.03-31.32-46.79
		c-14.67-11.91-31.27-19.14-52.21-17.13c1.82-3,2.71-5.27,4.27-6.91c14.21-14.95,28.48-29.84,42.89-44.61
		c1.98-2.03,4.64-4.25,7.26-4.68C156.16,225.04,171.56,223.28,187.3,228.93z M208.23,283.97c7.23-5.94,5.86-12.97-2.4-17.57
		c-8.46-4.72-17.32-5.73-27.86-1.78c-0.39-6.27-0.19-11.09-1.06-15.7c-1.99-10.57-12.09-15.03-19.68-8.63
		c-7.15,6.03-12.24,13.45-13.67,23.17c-1.74,11.91,0.9,21.97,8.04,32.03c4.9,6.9,10.26,9.77,17.46,7.99
		C183.46,299.91,196.76,293.4,208.23,283.97z"/>
	<path style="fill:#662D91;" d="M97.06,428.25c0.47,3.23,0.44,6.53,0.65,10.25c-7.82,4.23-15.66,5.93-24.9,4.43
		c1.02-11.27,1.99-22.05,2.97-32.84c-0.78-0.08-1.55-0.16-2.33-0.23c-1.38,10.72-2.76,21.45-4.28,33.2
		c-1.47-0.13-2.96-0.07-4.32-0.43c-1.37-0.37-2.63-1.16-4.3-1.93c1.16-13.51,2.31-26.94,3.46-40.37c-5.47,5.67-3.81,12.7-4.95,19.11
		c-1.15,6.49-1.58,13.11-2.43,20.68c-3.18-0.87-6.12-1.68-9.13-2.51c1.42-15.3,2.76-29.8,4.11-44.3c-0.79-0.11-1.59-0.22-2.38-0.32
		c-1.06,6.81-2.18,13.62-3.16,20.45c-0.98,6.8-1.81,13.61-2.72,20.48c-6.51-0.95-6.55-5.44-6.09-10.02
		c1.21-11.99,2.55-23.98,3.12-36.12c-4.83,11.96-4.5,25.09-7.84,37.47c-9.02-4.84-9.05-5.25-7.48-14.36
		c1.59-9.31,2.75-18.69,4.11-28.04c-0.72-0.11-1.44-0.23-2.16-0.34c-1.7,9.82-3.4,19.64-5.49,31.7
		c-6.81-13.41-10.65-25.53-10.03-38.79c0.26-5.53,10.36-11.49,18.08-11c1.79,0.11,3.6,0.67,5.31,1.3
		c27.59,10.12,47.73,28.39,60.04,55.13C95.98,423.16,96.69,425.73,97.06,428.25z"/>
	<path d="M455.38,163.08c-0.93,0.9-2.33,3.28-4.27,3.87c-2.98,0.91-7.55-4.75-7.36-9.35c0.06-1.6,1.95-4.02,3.48-4.49
		C450.78,152.04,455.11,156.92,455.38,163.08z"/>
	<path d="M431.7,111.37c6.07,4.05,11.46,8.97,9.07,19.65c-5.94-5.45-10.31-10.91-15.94-14.22c-5.48-3.22-12.26-4.23-20.31-6.8
		C415.06,105.22,423.65,105.99,431.7,111.37z"/>
	<path d="M419.76,17.52c19.18,2.89,23.24,10.16,17.81,28.73c-3.74,12.78-10.29,20.5-24.42,21.15c-3.17,0.15-6.45,4.17-9.13,6.94
		c-1.98,2.06-2.94,5.07-4.57,7.52c-2.45,3.68-5.61,4.45-9.42,1.89c-6.05-4.05-12.12-8.06-18.19-12.08
		c-2.15-1.43-4.49-2.62-6.44-4.27c-5.97-5.06-6.17-8.39-0.9-14.85c3.7-4.54,7.62-8.9,11.21-13.07
		c-6.68-21.84,2.12-29.98,15.19-35.24C404.37-1.2,413.01,3.35,419.76,17.52z M430.7,39.1c1.05-3.31,0.35-8.48-1.7-11.16
		c-3-3.9-7.73-2.72-11.9-0.06c-1.61,1.03-3.97,0.89-5.98,1.29c-0.21-2.3-0.83-4.64-0.55-6.88c0.81-6.7-1.09-10.69-6.27-12.17
		c-6.49-1.86-15.59,1.83-20.3,8.22c-4.37,5.95-3.93,9.15,2.2,17.55c0.57,0.8,0.58,2,0.92,3.28c-5.96,6.81-11.91,13.6-18.54,21.18
		c8.87,4.38,16.67,8.23,24.81,12.25c3.57-3.39,6.57-6.55,9.91-9.31c2.19-1.82,4.84-4.33,7.31-4.35
		C423.94,58.8,427.58,48.91,430.7,39.1z"/>
	<path d="M433.9,203.57c1.16,1.66,1.09,4.19,1.53,6.19c-0.57,2.35-0.54,4.89-1.74,6.53c-1.55,2.12-3.98,4.76-6.22,4.96
		c-4.05,0.36-5.32-3.14-5.26-6.83c0.05-3.3-0.45-6.81,0.5-9.85c0.77-2.42,3.16-5.62,5.21-5.93
		C429.67,198.37,432.4,201.42,433.9,203.57z"/>
	<path d="M430.74,238.38c1.08,4.69-2.76,9.96-8.99,12.61c-2.91-5.53-0.43-10.33,2.12-14.95c0.51-0.93,2.82-1.84,3.64-1.43
		C428.9,235.3,430.4,236.9,430.74,238.38z"/>
	<path d="M401.01,123.12c20.95,7.41,33.52,44.46,19.53,63.6c-0.8-3.76-2.28-7.52-2.29-11.29c-0.05-18.28-5.12-34.78-16.33-49.33
		C401.38,125.4,401.36,124.31,401.01,123.12z"/>
	<path d="M394.25,233.99c1.42,0.15,3.94,2.51,3.77,2.92c-2.1,4.87-4.57,9.58-7.07,14.27c-0.26,0.48-1.31,0.54-3.55,1.39
		c-1.21-2.3-3.59-4.77-3.58-7.23C383.83,240.67,390.71,233.62,394.25,233.99z"/>
	<path d="M395.77,156.48c6.15,18.99,1.74,48.7-10.92,57.52c0.37-4.22,0.66-8.44,1.12-12.65c0.99-9.08,2.86-18.15,2.91-27.23
		c0.07-11.15-3.42-21.62-9.72-31.03c-2.38-3.54-4.36-7.35-6.8-11.53C382.15,132.7,391.36,142.89,395.77,156.48z"/>
	<path d="M381.68,264.92c2.8,5.42,1.35,9.87-1.06,13.88c-0.89,1.49-4.05,3.24-5.01,2.72c-1.8-0.98-3.89-3.55-3.85-5.42
		C371.89,269.97,375.86,266.73,381.68,264.92z"/>
	<path d="M353.53,135.68c3.08,8.9,0.95,15.97-7.95,17.28c-16.53,2.43-24.24,15.01-34.2,25.23c-7.18,7.39-13.77,15.35-20.86,22.83
		c-4.09,4.32-6.19,8.94-5.04,14.96c1.37,7.21,1.62,14.74,3.88,21.63c4.29,13.12,1.15,23.47-8.44,33.03
		c-9.37,9.35-17.82,19.63-26.88,29.3c-26.2,27.94-52.21,56.06-78.9,83.53c-12.55,12.92-26.64,24.33-39.69,36.79
		c-5.5,5.25-9.67,11.9-15.22,17.09c-5.26,4.94-11.38,9.04-17.42,13.06c-2.93,1.96-6.56,2.88-9.87,4.27c-10.33,0-20.65,0-30.98,0
		c-0.87-0.6-1.66-1.52-2.62-1.76c-29.48-7.61-47.59-26.31-54.87-55.8c-0.94-3.81-2.95-7.36-4.47-11.04c0-5.16,0-10.32,0-15.49
		c0.33-0.17,0.88-0.28,0.95-0.53c5.12-18.17,18.91-30.16,30.94-43.41c23.54-25.89,46.5-52.33,70.69-77.58
		c19.34-20.19,39.69-39.48,60.53-58.12c9.76-8.73,21.44-15.47,32.77-22.22c9.74-5.8,20.14-6.56,30.3,0.02
		c7.12,4.6,14.15,3.48,20.49-1.59c6.31-5.05,12.25-10.57,18.47-15.75c6.77-5.62,13.43-11.43,20.59-16.54
		c8.25-5.89,9.92-8.34,5.7-17.88c-5.76-13.01,10.83-24.96,22.88-22.35c14.35,3.11,24.33,11.9,31.68,23.88
		C349.24,123.8,351.49,129.78,353.53,135.68z M334.83,150.4c8.81,0.85,12.38-5.14,9.38-13.71c-1.58-4.51-3.3-9.04-5.58-13.22
		c-4.87-8.93-11.5-16.16-21.48-19.57c-4.25-1.46-8.68-2.87-12.35,1.07c-3.27,3.49-2.2,7.51-0.53,11.36
		c3.17,7.3,0.56,12.7-5.19,17.44c-4.23,3.5-8.11,7.43-12.13,11.19c-11.31,10.55-22.35,21.42-34.01,31.58
		c-9.28,8.09-20.72,9.3-30.89,3.1c-8.89-5.43-15.93-3.34-23.73,0.65c-18.21,9.33-33.65,22.43-48.71,36.02
		c-0.57,0.51-0.35,1.89-0.52,2.95c39.09-4.72,66.13,6.14,89.37,58.15c1.92-9.48,3.69-18.28,5.46-27.07
		c2.62,15.66-1,30.69-4.02,47.34c4.77-4.92,8.3-8.55,11.52-11.88c-2.42-15.63,4.79-29.1,7.71-43.42c0.92,0.17,1.84,0.33,2.76,0.5
		c-2.41,12.42-4.82,24.84-7.36,37.95c1.78-0.9,2.87-1.2,3.62-1.87c6.91-6.25,11.08-14.92,18.68-20.71
		c3.55-2.69,4.08-7.16,2.98-12.11c-2.22-10.02-3.38-20.29-5.17-30.41c-1.34-7.58,1.03-13.86,6.25-19.14
		c13.75-13.87,27.58-27.66,41.38-41.48C325.74,151.63,329.12,149.84,334.83,150.4z M229.81,304.8
		c4.87-28.11-17.44-66.88-42.51-75.87c-15.74-5.65-31.14-3.89-46.75-1.31c-2.62,0.43-5.28,2.65-7.26,4.68
		c-14.41,14.77-28.68,29.66-42.89,44.61c-1.56,1.64-2.45,3.91-4.27,6.91c20.94-2.01,37.54,5.22,52.21,17.13
		c14.49,11.76,24.23,27.16,31.32,46.79c1.14-8.78,1.96-15.08,2.78-21.39c0.76,0.11,1.52,0.23,2.27,0.35
		c-0.64,13.55-1.28,27.09-1.96,41.61c6.23-3.71,8.14-7.84,8.97-13.37c1.81-11.95,4.51-23.77,6.85-35.64
		c0.71,0.13,1.43,0.25,2.15,0.37c-1.41,11-2.81,22-4.48,35.04c4.93-4.58,8.55-6.42,9.27-12.35c1.96-16.23,5.18-32.31,7.91-48.45
		c0.85,0.13,1.69,0.26,2.54,0.39c0.58,15.25-4.88,29.84-6.75,46.49c8.97-5.77,13.65-11.44,13.6-21.33
		c-0.05-8.55,2.63-17.11,4.11-25.66c0.84,0.1,1.69,0.2,2.53,0.3c-0.74,8.78-1.47,17.55-2.23,26.71
		C226.1,315.16,228.6,311.8,229.81,304.8z M159.07,382.72c3.48-2.84,4.47-6.35,4.35-10.72c-0.63-23.02-7.66-43.5-24.39-59.76
		c-16-15.53-34.28-25.72-57.68-19.9c-3.66,0.91-7.51,3.11-10.13,5.82c-16.37,16.96-32.46,34.2-48.53,51.45
		c-2.58,2.76-4.6,6.04-6.48,8.55c7.93,0.56,15.75-0.65,22.04,1.9c19.9,8.05,38.77,18.08,50.8,37.21c4.41,7,9.26,13.72,14.91,22.04
		c1.18-14.36,2.21-26.93,3.23-39.5c0.28,0,0.55,0.01,0.83,0.01c0,16.65,0,33.29,0,50.59c9.02-9.54,8.78-9.55,9.59-20.46
		c1.32-17.69,2.97-35.35,4.48-53.03c0.71,0.05,1.42,0.09,2.13,0.14c-0.81,18.84-1.61,37.68-2.45,57.18
		c7.78-2.76,7.95-8.28,8.55-13.81c1.54-14.38,3.34-28.74,5.04-43.1c0.62,0.06,1.25,0.12,1.87,0.19
		c-1.12,15.13-2.23,30.26-3.41,46.17c7.06-4.91,7.01-4.92,7.92-10.49c2.34-14.22,4.73-28.44,7.1-42.65
		c0.59,0.08,1.18,0.16,1.77,0.24c-1.49,13.64-2.99,27.28-4.59,41.77c2.16-0.87,3.31-1.04,4.05-1.68
		C153.13,388.22,155.94,385.28,159.07,382.72z M97.71,438.5c-0.21-3.72-0.18-7.02-0.65-10.25c-0.37-2.52-1.08-5.09-2.14-7.4
		c-12.31-26.74-32.45-45.01-60.04-55.13c-1.71-0.63-3.52-1.19-5.31-1.3c-7.72-0.49-17.82,5.47-18.08,11
		c-0.62,13.26,3.22,25.38,10.03,38.79c2.09-12.06,3.79-21.88,5.49-31.7c0.72,0.11,1.44,0.23,2.16,0.34
		c-1.36,9.35-2.52,18.73-4.11,28.04c-1.57,9.11-1.54,9.52,7.48,14.36c3.34-12.38,3.01-25.51,7.84-37.47
		c-0.57,12.14-1.91,24.13-3.12,36.12c-0.46,4.58-0.42,9.07,6.09,10.02c0.91-6.87,1.74-13.68,2.72-20.48
		c0.98-6.83,2.1-13.64,3.16-20.45c0.79,0.1,1.59,0.21,2.38,0.32c-1.35,14.5-2.69,29-4.11,44.3c3.01,0.83,5.95,1.64,9.13,2.51
		c0.85-7.57,1.28-14.19,2.43-20.68c1.14-6.41-0.52-13.44,4.95-19.11c-1.15,13.43-2.3,26.86-3.46,40.37c1.67,0.77,2.93,1.56,4.3,1.93
		c1.36,0.36,2.85,0.3,4.32,0.43c1.52-11.75,2.9-22.48,4.28-33.2c0.78,0.07,1.55,0.15,2.33,0.23c-0.98,10.79-1.95,21.57-2.97,32.84
		C82.05,444.43,89.89,442.73,97.71,438.5z"/>
	<path style="fill:#662D91;" d="M344.21,136.69c3,8.57-0.57,14.56-9.38,13.71c-5.71-0.56-9.09,1.23-12.56,4.71
		c-13.8,13.82-27.63,27.61-41.38,41.48c-5.22,5.28-7.59,11.56-6.25,19.14c1.79,10.12,2.95,20.39,5.17,30.41
		c1.1,4.95,0.57,9.42-2.98,12.11c-7.6,5.79-11.77,14.46-18.68,20.71c-0.75,0.67-1.84,0.97-3.62,1.87
		c2.54-13.11,4.95-25.53,7.36-37.95c-0.92-0.17-1.84-0.33-2.76-0.5c-2.92,14.32-10.13,27.79-7.71,43.42
		c-3.22,3.33-6.75,6.96-11.52,11.88c3.02-16.65,6.64-31.68,4.02-47.34c-1.77,8.79-3.54,17.59-5.46,27.07
		c-23.24-52.01-50.28-62.87-89.37-58.15c0.17-1.06-0.05-2.44,0.52-2.95c15.06-13.59,30.5-26.69,48.71-36.02
		c7.8-3.99,14.84-6.08,23.73-0.65c10.17,6.2,21.61,4.99,30.89-3.1c11.66-10.16,22.7-21.03,34.01-31.58
		c4.02-3.76,7.9-7.69,12.13-11.19c5.75-4.74,8.36-10.14,5.19-17.44c-1.67-3.85-2.74-7.87,0.53-11.36c3.67-3.94,8.1-2.53,12.35-1.07
		c9.98,3.41,16.61,10.64,21.48,19.57C340.91,127.65,342.63,132.18,344.21,136.69z"/>
	<path d="M343.7,19.53c0.89,0.88-0.06,3.61-0.25,7.2c-13.2-12.72-28.39-17.1-44.12-17.68c-15.16-0.55-30.42,1.63-45.64,2.61
		c-0.22-0.74-0.44-1.47-0.66-2.21c3.79-1.84,7.4-4.37,11.39-5.39c23.19-5.91,45.89-4.09,67.62,5.98
		C336.47,12.09,340.15,16,343.7,19.53z"/>
	<path d="M323.18,35.33c3.65,3.66,7.57,7.85,5.43,15.58c-9.76-9.56-17.58-20.88-31.55-21.37c-12.26-0.42-24.56,0.53-36.88,0.87
		c5.4-5.62,13.44-6.5,20.85-8.09C297.32,18.84,311.51,23.65,323.18,35.33z"/>
	<path d="M306.55,63.22c7.13,0.46,13.96,2.67,18.12,9.67c-26.47-11.58-50.05-3.58-73,9.55c-4.32,2.47-8.84,4.58-14.54,7.51
		c-1.34-8.04,3.13-10.2,6.47-12.49c11.04-7.57,23.28-12.61,36.6-13.97C288.91,62.6,297.8,62.67,306.55,63.22z"/>
	<path d="M224.16,45.09c2.61-11.5,11.08-15.61,18.92-8.92C237.71,41.23,233.31,47.68,224.16,45.09z"/>
	<path d="M225.97,11.21c3.84-1.59,6.97-0.86,9.79,3.61c-6.86,6.2-13.76,10.23-23.84,7.43C213.73,14.03,220.54,13.46,225.97,11.21z"
		/>
	<path d="M215.85,93.69c5.12-2.49,5.27-2.25,11.76,2.85c-11.33,12.26-16.61,14.9-25.27,12.32
		C203.09,100.43,209.37,96.85,215.85,93.69z"/>
	<path style="fill:#C1272D;" d="M205.83,266.4c8.26,4.6,9.63,11.63,2.4,17.57c-11.47,9.43-24.77,15.94-39.17,19.51
		c-7.2,1.78-12.56-1.09-17.46-7.99c-7.14-10.06-9.78-20.12-8.04-32.03c1.43-9.72,6.52-17.14,13.67-23.17
		c7.59-6.4,17.69-1.94,19.68,8.63c0.87,4.61,0.67,9.43,1.06,15.7C188.51,260.67,197.37,261.68,205.83,266.4z"/>
	<path d="M187.38,27.18c3.76-6.66,8.17-7.49,14.15-5.99C196.49,26.49,196.49,26.49,187.38,27.18z"/>
	<path d="M197.8,58.52c-0.61,6.19-4.06,9.27-10.85,11.32C188.94,59.79,189.48,59.27,197.8,58.52z"/>
	<path d="M182.12,126.76c2.39-3.61,5.41-6.73,13.45-5.07c-3.18,4.28-5.09,7.56-7.73,10.03c-1.02,0.96-3.99,0.61-5.56-0.17
		C181.56,131.2,181.35,127.92,182.12,126.76z"/>
	<path style="fill:#662D91;" d="M163.42,372c0.12,4.37-0.87,7.88-4.35,10.72c-3.13,2.56-5.94,5.5-9,8.16
		c-0.74,0.64-1.89,0.81-4.05,1.68c1.6-14.49,3.1-28.13,4.59-41.77c-0.59-0.08-1.18-0.16-1.77-0.24c-2.37,14.21-4.76,28.43-7.1,42.65
		c-0.91,5.57-0.86,5.58-7.92,10.49c1.18-15.91,2.29-31.04,3.41-46.17c-0.62-0.07-1.25-0.13-1.87-0.19
		c-1.7,14.36-3.5,28.72-5.04,43.1c-0.6,5.53-0.77,11.05-8.55,13.81c0.84-19.5,1.64-38.34,2.45-57.18c-0.71-0.05-1.42-0.09-2.13-0.14
		c-1.51,17.68-3.16,35.34-4.48,53.03c-0.81,10.91-0.57,10.92-9.59,20.46c0-17.3,0-33.94,0-50.59c-0.28,0-0.55-0.01-0.83-0.01
		c-1.02,12.57-2.05,25.14-3.23,39.5c-5.65-8.32-10.5-15.04-14.91-22.04c-12.03-19.13-30.9-29.16-50.8-37.21
		c-6.29-2.55-14.11-1.34-22.04-1.9c1.88-2.51,3.9-5.79,6.48-8.55c16.07-17.25,32.16-34.49,48.53-51.45
		c2.62-2.71,6.47-4.91,10.13-5.82c23.4-5.82,41.68,4.37,57.68,19.9C155.76,328.5,162.79,348.98,163.42,372z"/>
</g>
<g>
</g>
<g>
</g>
<g>
</g>
<g>
</g>
<g>
</g>
<g>
</g>
<g>
</g>
<g>
</g>
<g>
</g>
<g>
</g>
<g>
</g>
<g>
</g>
<g>
</g>
<g>
</g>
<g>
</g>
</svg>
