<svg height="512pt" viewBox="-47 0 512 512.001" width="512pt" xmlns="http://www.w3.org/2000/svg"><path d="m4.199219 103.28125c-2.613281 0-4.589844 2.363281-4.1289065 4.9375l6.0859375 33.828125c6.167969 34.304687 31.578125 61.011719 63.898438 69.820313 13.351562 3.640624 22.710937 15.609374 22.710937 29.445312v19.574219c0 29.152343 16.753906 54.394531 41.15625 66.621093 11.386719 5.707032 18.464844 17.472657 18.464844 30.210938v107.929688c0 8.488281-4.339844 16.386718-11.503907 20.941406l-33.347656 21.175781c-1.941406 1.230469-1.066406 4.234375 1.230469 4.234375h116.949219c2.296875 0 3.171875-3.003906 1.230468-4.234375l-33.34375-21.175781c-7.167968-4.554688-11.507812-12.449219-11.507812-20.941406v-107.929688c0-12.738281 7.078125-24.503906 18.46875-30.210938 24.402344-12.226562 41.152344-37.464843 41.152344-66.617187v-19.574219c0-13.835937 9.363281-25.808594 22.710937-29.445312 32.320313-8.8125 57.734375-35.519532 63.902344-69.824219l6.082031-33.828125c.460938-2.570312-1.515625-4.933594-4.128906-4.933594h-326.082031zm0 0" fill="#90caf9"/><path d="m4.195312 103.28125c-2.613281 0-4.589843 2.363281-4.1289058 4.933594l6.0859378 33.835937c6.113281 34.199219 31.824218 61.289063 63.910156 69.820313.019531 0 .027344.007812.046875.019531 10.375 2.394531 19.878906 11.394531 22.230469 24.328125.726562 4.3125.308594 5.746094.429687 24.671875 0 4.96875.5 9.972656 1.441407 14.628906 7.265624 36.355469 39.015624 59.765625 73.03125 59.78125 34.011718-.015625 65.761718-23.425781 73.027343-59.78125.945313-4.65625 1.441407-9.660156 1.441407-14.628906.121093-18.925781-.296876-20.359375.429687-24.671875 2.355469-12.933594 11.855469-21.933594 22.230469-24.328125.019531-.011719.03125-.019531.050781-.019531 32.082031-8.53125 57.792969-35.621094 63.910156-69.820313l6.082031-33.835937c.460938-2.570313-1.515624-4.933594-4.128906-4.933594zm0 0" fill="#e3f2fd"/><path d="m291.707031 103.28125-3.375 18.769531c-6.117187 34.199219-31.828125 61.289063-63.910156 69.820313-.019531 0-.03125.007812-.050781.019531-10.375 2.394531-19.875 11.394531-22.230469 24.328125-.726563 4.3125-.308594 5.746094-.429687 24.671875 0 4.96875-.496094 9.972656-1.441407 14.628906-7.265625 36.355469-39.015625 59.765625-73.027343 59.78125-4.015626-.003906-7.996094-.339843-11.910157-.976562 13.808594 13.320312 32.484375 20.96875 51.910157 20.976562 34.011718-.015625 65.761718-23.425781 73.027343-59.78125.945313-4.65625 1.441407-9.660156 1.441407-14.628906.121093-18.925781-.296876-20.359375.429687-24.671875 2.355469-12.933594 11.855469-21.933594 22.230469-24.328125.019531-.011719.03125-.019531.050781-.019531 32.082031-8.53125 57.792969-35.621094 63.910156-69.820313l6.082031-33.835937c.460938-2.570313-1.515624-4.933594-4.128906-4.933594zm0 0" fill="#90caf9"/><path d="m15.691406 169.019531c.820313 1.5 1.691406 2.960938 2.589844 4.410157-.910156-1.441407-1.769531-2.910157-2.589844-4.410157zm0 0" fill="#42a5f5"/><path d="m18.28125 173.429688c.910156 1.441406 1.851562 2.851562 2.832031 4.230468-.980469-1.378906-1.929687-2.789062-2.832031-4.230468zm0 0" fill="#42a5f5"/><path d="m22.613281 179.710938c1.019531 1.347656 2.078125 2.667968 3.167969 3.960937-1.097656-1.292969-2.160156-2.613281-3.167969-3.960937zm0 0" fill="#42a5f5"/><path d="m312.222656 179.238281c-.859375 1.171875-1.761718 2.320313-2.691406 3.441407.921875-1.121094 1.820312-2.269532 2.691406-3.441407zm0 0" fill="#42a5f5"/><path d="m217.683594 103.28125c-3.789063 0-6.8125-3.199219-6.558594-6.980469 3.589844-53.785156 48.355469-96.300781 103.050781-96.300781 54.695313 0 99.457031 42.515625 103.050781 96.300781.25 3.777344-2.773437 6.980469-6.5625 6.980469zm0 0" fill="#66bb6a"/><path d="m278.296875 67.40625 35.878906 35.875v-50.722656c0-14.871094-15.085937-25.117188-28.839843-19.460938-.230469.09375-.460938.191406-.6875.289063-13.574219 5.742187-16.773438 23.597656-6.351563 34.019531zm0 0" fill="#a5d6a7"/><path d="m263.449219 103.28125h50.726562l-35.878906-35.875c-10.421875-10.421875-28.277344-7.226562-34.019531 6.347656-.097656.230469-.195313.460938-.289063.691406-5.65625 13.753907 4.589844 28.835938 19.460938 28.835938zm0 0" fill="#c8e6c9"/><path d="m314.175781 52.558594v50.722656l35.875-35.875c10.421875-10.421875 7.226563-28.277344-6.347656-34.019531-.230469-.097657-.460937-.195313-.6875-.289063-13.753906-5.65625-28.839844 4.589844-28.839844 19.460938zm0 0" fill="#c8e6c9"/><path d="m350.085938 67.371094-35.910157 35.910156h50.722657c14.894531 0 25.117187-15.113281 19.441406-28.882812-.085938-.214844-.175782-.429688-.265625-.640626-5.742188-13.574218-23.570313-16.804687-33.988281-6.386718zm0 0" fill="#a5d6a7"/><path d="m227.238281 155.671875c-65.59375 0-65.59375 17.308594-131.191406 17.308594-45.019531 0-59.140625-8.15625-84.773437-13.269531 10.398437 25.640624 32.261718 44.929687 58.785156 52.15625 13.347656 3.640624 22.710937 15.609374 22.710937 29.445312v19.574219c0 41.132812 33.34375 74.476562 74.472657 74.476562 41.132812 0 74.472656-33.34375 74.472656-74.476562v-19.574219c0-13.835938 9.363281-25.804688 22.714844-29.445312 22.816406-6.21875 42.179687-21.363282 53.769531-41.800782-29.8125-4.933594-42.457031-14.394531-90.960938-14.394531zm0 0" fill="#ffca28"/><path d="m272.0625 159.402344c-11.734375 15.683594-28.453125 27.238281-47.632812 32.464844-13.351563 3.640624-22.714844 15.609374-22.714844 29.445312v19.574219c0 41.132812-33.339844 74.476562-74.472656 74.476562-3.992188 0-7.910157-.324219-11.730469-.929687 13.398437 12.949218 31.628906 20.929687 51.730469 20.929687 41.132812 0 74.472656-33.34375 74.472656-74.476562v-19.574219c0-13.835938 9.363281-25.804688 22.714844-29.445312 22.816406-6.21875 42.179687-21.363282 53.769531-41.800782-17.734375-2.933594-29.390625-7.46875-46.136719-10.664062zm0 0" fill="#ffa000"/><path d="m92.082031 234.898438c-2.371093-10.988282-10.769531-19.9375-21.96875-23.007813.128907.03125.25.070313.378907.097656 11.089843 2.960938 19.269531 11.992188 21.589843 22.910157zm0 0" fill="#a5d6a7"/><path d="m264 211.988281c.132812-.027343.25-.066406.382812-.097656-10.839843 2.960937-19.03125 11.417969-21.722656 21.910156 2.621094-10.421875 10.621094-18.949219 21.339844-21.8125zm0 0" fill="#a5d6a7"/><path d="m318.203125 170.070312c-.132813.230469-.261719.460938-.402344.679688.132813-.230469.261719-.449219.390625-.679688zm0 0" fill="#a5d6a7"/><g fill="#fff"><path d="m38.566406 128.828125c0 4.15625-3.371094 7.527344-7.527344 7.527344-4.152343 0-7.523437-3.371094-7.523437-7.527344 0-4.152344 3.371094-7.523437 7.523437-7.523437 4.15625 0 7.527344 3.371093 7.527344 7.523437zm0 0"/><path d="m72.6875 123.820312c0 4.15625-3.371094 7.523438-7.527344 7.523438-4.152344 0-7.523437-3.367188-7.523437-7.523438s3.371093-7.523437 7.523437-7.523437c4.15625 0 7.527344 3.367187 7.527344 7.523437zm0 0"/><path d="m102.484375 136.328125c0 4.15625-3.367187 7.527344-7.523437 7.527344s-7.523438-3.371094-7.523438-7.527344c0-4.152344 3.367188-7.523437 7.523438-7.523437s7.523437 3.371093 7.523437 7.523437zm0 0"/><path d="m132.566406 123.820312c0 4.152344-3.371094 7.523438-7.527344 7.523438-4.152343 0-7.523437-3.371094-7.523437-7.523438 0-4.15625 3.371094-7.523437 7.523437-7.523437 4.15625 0 7.527344 3.367187 7.527344 7.523437zm0 0"/><path d="m163.066406 130.640625c0 4.15625-3.371094 7.523437-7.527344 7.523437-4.152343 0-7.523437-3.367187-7.523437-7.523437s3.371094-7.523437 7.523437-7.523437c4.15625 0 7.527344 3.367187 7.527344 7.523437zm0 0"/><path d="m191.195312 123.050781c0 4.15625-3.371093 7.523438-7.523437 7.523438-4.15625 0-7.523437-3.367188-7.523437-7.523438 0-4.152343 3.367187-7.523437 7.523437-7.523437 4.152344 0 7.523437 3.371094 7.523437 7.523437zm0 0"/><path d="m218.074219 133.429688c0 4.15625-3.367188 7.523437-7.523438 7.523437s-7.523437-3.367187-7.523437-7.523437 3.367187-7.523438 7.523437-7.523438 7.523438 3.367188 7.523438 7.523438zm0 0"/><path d="m244.675781 121.871094c0 4.152344-3.367187 7.523437-7.523437 7.523437s-7.523438-3.371093-7.523438-7.523437c0-4.15625 3.367188-7.523438 7.523438-7.523438s7.523437 3.367188 7.523437 7.523438zm0 0"/><path d="m278.65625 130.78125c0 4.152344-3.371094 7.523438-7.527344 7.523438-4.152344 0-7.523437-3.371094-7.523437-7.523438 0-4.15625 3.371093-7.523438 7.523437-7.523438 4.15625 0 7.527344 3.367188 7.527344 7.523438zm0 0"/></g><path d="m311.804688 123.816406c0 4.15625-3.367188 7.527344-7.523438 7.527344s-7.523438-3.371094-7.523438-7.527344c0-4.152344 3.367188-7.523437 7.523438-7.523437s7.523438 3.371093 7.523438 7.523437zm0 0" fill="#e3f2fd"/></svg>