<?xml version="1.0" encoding="iso-8859-1"?>
<!-- Generator: Adobe Illustrator 19.0.0, SVG Export Plug-In . SVG Version: 6.00 Build 0)  -->
<svg version="1.1" id="Layer_1" xmlns="http://www.w3.org/2000/svg" xmlns:xlink="http://www.w3.org/1999/xlink" x="0px" y="0px"
	 viewBox="0 0 495.025 495.025" style="enable-background:new 0 0 495.025 495.025;" xml:space="preserve">
<path style="fill:#B1BCB8;" d="M19.7,135.708c0-59.526,48.254-107.756,107.756-107.756h11.973
	c59.51,0,107.756,48.23,107.756,107.756v331.366"/>
<path style="fill:#C7D3CE;" d="M19.7,135.708c0-59.526,48.254-107.756,107.756-107.756h11.973
	c59.51,0,107.756,48.23,107.756,107.756"/>
<path style="fill:#0071AA;" d="M247.178,486.766c-10.878,0-19.692-8.814-19.692-19.692V135.708
	c0-48.553-39.511-88.064-88.064-88.064h-11.973c-48.553,0-88.064,39.511-88.064,88.064c0,10.878-8.814,19.692-19.692,19.692
	S0,146.586,0,135.708C0,65.43,57.171,8.259,127.449,8.259h11.973c70.286,0,127.449,57.171,127.449,127.449v331.366
	C266.87,477.952,258.048,486.766,247.178,486.766z"/>
<path style="fill:#32F9B1;" d="M475.317,135.708c0-59.526-48.254-107.756-107.764-107.756H355.58
	c-59.494,0-107.756,48.23-107.756,107.756v331.366"/>
<path style="fill:#2FD4EA;" d="M475.317,135.708c0-59.526-48.254-107.756-107.764-107.756H355.58
	c-59.494,0-107.756,48.23-107.756,107.756"/>
<path style="fill:#0071AA;" d="M247.84,486.766c-10.878,0-19.692-8.814-19.692-19.692V135.708
	c0-70.278,57.171-127.449,127.449-127.449h11.973c70.278,0,127.456,57.171,127.456,127.449c0,10.878-8.814,19.692-19.692,19.692
	c-10.878,0-19.692-8.814-19.692-19.692c0-48.553-39.519-88.064-88.072-88.064h-11.973c-48.553,0-88.064,39.511-88.064,88.064
	v331.366C267.532,477.952,258.71,486.766,247.84,486.766z"/>
<g>
</g>
<g>
</g>
<g>
</g>
<g>
</g>
<g>
</g>
<g>
</g>
<g>
</g>
<g>
</g>
<g>
</g>
<g>
</g>
<g>
</g>
<g>
</g>
<g>
</g>
<g>
</g>
<g>
</g>
</svg>
