<?xml version="1.0" encoding="iso-8859-1"?>
<!-- Generator: Adobe Illustrator 19.0.0, SVG Export Plug-In . SVG Version: 6.00 Build 0)  -->
<svg version="1.1" id="Layer_1" xmlns="http://www.w3.org/2000/svg" xmlns:xlink="http://www.w3.org/1999/xlink" x="0px" y="0px"
	 viewBox="0 0 498.877 498.877" style="enable-background:new 0 0 498.877 498.877;" xml:space="preserve">
<path style="fill:#0071AA;" d="M479.185,370.877H19.692C8.814,370.877,0,362.063,0,351.185c0-10.878,8.814-19.692,19.692-19.692
	h459.492c10.878,0,19.692,8.814,19.692,19.692C498.877,362.063,490.063,370.877,479.185,370.877z"/>
<path style="fill:#0071AA;" d="M479.185,278.977H19.692C8.814,278.977,0,270.163,0,259.285c0-10.878,8.814-19.692,19.692-19.692
	h459.492c10.878,0,19.692,8.814,19.692,19.692C498.877,270.163,490.063,278.977,479.185,278.977z"/>
<path style="fill:#32F9B1;" d="M373.815,278.977c0.126-2.182,0.339-4.356,0.339-6.569c0-68.876-55.832-124.715-124.723-124.715
	c-68.876,0-124.707,55.84-124.707,124.715c0,2.213,0.213,4.387,0.331,6.569"/>
<g>
	<path style="fill:#2FD4EA;" d="M373.815,278.977c0.126-2.182,0.339-4.356,0.339-6.569c0-68.876-55.832-124.715-124.723-124.715"/>
</g>
<path style="fill:#0071AA;" d="M373.839,298.669c-0.347,0-0.701-0.008-1.056-0.031c-10.862-0.567-19.204-9.838-18.629-20.701
	l0.158-2.355c0.063-1.056,0.158-2.111,0.158-3.174c0-57.911-47.112-105.023-105.031-105.023
	c-57.911,0-105.015,47.112-105.015,105.023c0,1.071,0.087,2.127,0.158,3.174l0.15,2.355c0.575,10.862-7.759,20.133-18.621,20.701
	c-10.823,0.835-20.133-7.759-20.701-18.621l-0.118-1.788c-0.126-1.93-0.244-3.86-0.244-5.821c0-79.62,64.788-144.408,144.4-144.408
	c79.628,0,144.416,64.788,144.416,144.408c0,1.961-0.126,3.891-0.244,5.821l-0.126,1.788
	C392.925,290.525,384.228,298.669,373.839,298.669z"/>
<g>
</g>
<g>
</g>
<g>
</g>
<g>
</g>
<g>
</g>
<g>
</g>
<g>
</g>
<g>
</g>
<g>
</g>
<g>
</g>
<g>
</g>
<g>
</g>
<g>
</g>
<g>
</g>
<g>
</g>
</svg>
